<svg width="446" height="103" viewBox="0 0 446 103" fill="none" xmlns="http://www.w3.org/2000/svg">
<g clip-path="url(#clip0_26_1899)">
<rect width="446" height="103" rx="5" fill="#2D52F1"/>
<path d="M136.001 66.2073V39.5984H138.313L150.44 60.3547H149.227L161.241 39.5984H163.552V66.2073H160.861V43.8171H161.506L150.44 62.8235H149.113L137.971 43.8171H138.691V66.2073H136H136.001Z" fill="white"/>
<path d="M180.076 66.3974C178.005 66.3974 176.186 65.9606 174.619 65.0857C173.052 64.2108 171.828 63.0076 170.944 61.4746C170.059 59.9416 169.617 58.1858 169.617 56.2101C169.617 54.2345 170.039 52.4846 170.886 50.965C171.731 49.4439 172.894 48.2466 174.372 47.3732C175.85 46.4997 177.511 46.0615 179.355 46.0615C181.199 46.0615 182.886 46.4864 184.338 47.3346C185.791 48.1842 186.934 49.3756 187.768 50.9086C188.602 52.4415 189.02 54.2092 189.02 56.2116C189.02 56.3394 189.014 56.4716 189 56.6112C188.987 56.7508 188.981 56.8964 188.981 57.0479H171.662V55.0337H187.54L186.478 55.8313C186.478 54.3875 186.169 53.1011 185.55 51.9736C184.931 50.8462 184.091 49.9653 183.029 49.331C181.967 48.6982 180.743 48.3803 179.354 48.3803C177.965 48.3803 176.764 48.6982 175.678 49.331C174.591 49.9653 173.745 50.8521 173.138 51.9915C172.533 53.1323 172.229 54.438 172.229 55.9071V56.3245C172.229 57.8456 172.564 59.1825 173.233 60.3352C173.902 61.488 174.837 62.3881 176.038 63.0343C177.237 63.6805 178.609 64.0043 180.15 64.0043C181.363 64.0043 182.493 63.7889 183.542 63.3581C184.59 62.9274 185.494 62.2693 186.252 61.381L187.768 63.1294C186.884 64.1944 185.778 65.0055 184.452 65.5625C183.126 66.1196 181.667 66.3989 180.075 66.3989L180.076 66.3974Z" fill="white"/>
<path d="M202.435 66.3974C200.539 66.3974 198.841 65.9666 197.338 65.1051C195.834 64.2435 194.653 63.0462 193.794 61.5132C192.935 59.9802 192.505 58.2126 192.505 56.2102C192.505 54.2078 192.935 52.4089 193.794 50.8878C194.653 49.3667 195.833 48.1828 197.338 47.3331C198.841 46.4849 200.539 46.0601 202.435 46.0601C204.178 46.0601 205.737 46.4537 207.115 47.238C208.492 48.0238 209.591 49.1706 210.411 50.6783C211.231 52.1861 211.643 54.0295 211.643 56.2087C211.643 58.3878 211.239 60.2001 210.43 61.7212C209.622 63.2423 208.529 64.401 207.152 65.2001C205.774 65.9978 204.202 66.3974 202.433 66.3974H202.435ZM202.624 64.0029C204.039 64.0029 205.308 63.6805 206.433 63.0329C207.557 62.3867 208.441 61.4746 209.086 60.2966C209.73 59.1187 210.053 57.7565 210.053 56.2102C210.053 54.6638 209.731 53.2705 209.086 52.1044C208.441 50.9398 207.557 50.0322 206.433 49.386C205.309 48.7398 204.039 48.416 202.624 48.416C201.21 48.416 199.984 48.7398 198.873 49.386C197.761 50.0322 196.877 50.9383 196.221 52.1044C195.563 53.2705 195.236 54.6386 195.236 56.2102C195.236 57.7818 195.563 59.1187 196.221 60.2966C196.877 61.4746 197.761 62.3867 198.873 63.0329C199.985 63.679 201.235 64.0029 202.624 64.0029ZM210.128 66.2073V60.2016L210.393 56.1715L210.014 52.1415V38H212.705V66.2058H210.128V66.2073Z" fill="white"/>
<path d="M216.458 66.2073V40.8655H233.297V53.5394H220.668V66.2073H216.458ZM229.087 49.3162V45.0886H220.668V49.3162H229.087Z" fill="white"/>
<path d="M237.512 66.2073V40.8655H241.722V66.2073H237.512Z" fill="white"/>
<path d="M245.931 49.3162V40.8655H250.141V49.3162H245.931ZM245.931 66.2073V61.9842H250.141V66.2073H245.931ZM250.141 53.5394V49.3162H254.351V53.5394H250.141ZM250.141 61.9842V57.761H254.351V61.9842H250.141ZM254.35 57.761V53.5379H258.56V57.761H254.35ZM258.56 53.5394V49.3162H262.77V53.5394H258.56ZM258.56 61.9842V57.761H262.77V61.9842H258.56ZM262.77 49.3162V40.8655H266.985V49.3162H262.77ZM262.77 66.2073V61.9842H266.985V66.2073H262.77Z" fill="white"/>
<path d="M271.195 66.2073V40.8655H288.034V45.0886H275.405V49.3162H288.034V53.5394H275.405V61.9842H288.034V66.2073H271.195Z" fill="white"/>
<path d="M292.249 66.2073V40.8655H296.459V61.9842H309.088V66.2073H292.249Z" fill="white"/>
</g>
<defs>
<clipPath id="clip0_26_1899">
<rect width="446" height="103" rx="5" fill="white"/>
</clipPath>
</defs>
</svg>
