<svg width="83" height="85" viewBox="0 0 83 85" fill="none" xmlns="http://www.w3.org/2000/svg">
<path d="M4.91808 82.154C4.30942 82.154 3.74475 82.0587 3.22408 81.868C2.71075 81.67 2.26342 81.3913 1.88208 81.032C1.50808 80.6727 1.21475 80.251 1.00208 79.767C0.789415 79.2757 0.683082 78.7367 0.683082 78.15C0.683082 77.5633 0.789415 77.028 1.00208 76.544C1.21475 76.0527 1.50808 75.6273 1.88208 75.268C2.26342 74.9087 2.71075 74.6337 3.22408 74.443C3.74475 74.245 4.30942 74.146 4.91808 74.146C5.62942 74.146 6.26375 74.2707 6.82108 74.52C7.38575 74.7693 7.85508 75.1287 8.22908 75.598L6.84308 76.852C6.59375 76.5587 6.31875 76.335 6.01808 76.181C5.72475 76.027 5.39475 75.95 5.02808 75.95C4.71275 75.95 4.42308 76.0013 4.15908 76.104C3.89508 76.2067 3.66775 76.357 3.47708 76.555C3.29375 76.7457 3.14708 76.9767 3.03708 77.248C2.93442 77.5193 2.88308 77.82 2.88308 78.15C2.88308 78.48 2.93442 78.7807 3.03708 79.052C3.14708 79.3233 3.29375 79.558 3.47708 79.756C3.66775 79.9467 3.89508 80.0933 4.15908 80.196C4.42308 80.2987 4.71275 80.35 5.02808 80.35C5.39475 80.35 5.72475 80.273 6.01808 80.119C6.31875 79.965 6.59375 79.7413 6.84308 79.448L8.22908 80.702C7.85508 81.164 7.38575 81.5233 6.82108 81.78C6.26375 82.0293 5.62942 82.154 4.91808 82.154ZM8.14727 82L11.5463 74.3H13.6913L17.1013 82H14.8353L12.1733 75.367H13.0313L10.3693 82H8.14727ZM10.0063 80.504L10.5673 78.898H14.3293L14.8903 80.504H10.0063ZM17.7187 82V74.3H21.2387C21.9427 74.3 22.5477 74.4137 23.0537 74.641C23.5671 74.8683 23.9631 75.1983 24.2417 75.631C24.5204 76.0563 24.6597 76.5623 24.6597 77.149C24.6597 77.7283 24.5204 78.2307 24.2417 78.656C23.9631 79.074 23.5671 79.3967 23.0537 79.624C22.5477 79.844 21.9427 79.954 21.2387 79.954H18.9287L19.8967 79.041V82H17.7187ZM22.4817 82L20.5677 79.195H22.8887L24.8137 82H22.4817ZM19.8967 79.272L18.9287 78.271H21.1067C21.5614 78.271 21.8987 78.172 22.1187 77.974C22.3461 77.776 22.4597 77.501 22.4597 77.149C22.4597 76.7897 22.3461 76.511 22.1187 76.313C21.8987 76.115 21.5614 76.016 21.1067 76.016H18.9287L19.8967 75.015V79.272ZM25.8613 82V74.3H29.5023C30.353 74.3 31.101 74.4577 31.7463 74.773C32.3916 75.0883 32.894 75.532 33.2533 76.104C33.62 76.676 33.8033 77.358 33.8033 78.15C33.8033 78.9347 33.62 79.6167 33.2533 80.196C32.894 80.768 32.3916 81.2117 31.7463 81.527C31.101 81.8423 30.353 82 29.5023 82H25.8613ZM28.0393 80.262H29.4143C29.8543 80.262 30.2356 80.1813 30.5583 80.02C30.8883 79.8513 31.145 79.6093 31.3283 79.294C31.5116 78.9713 31.6033 78.59 31.6033 78.15C31.6033 77.7027 31.5116 77.3213 31.3283 77.006C31.145 76.6907 30.8883 76.4523 30.5583 76.291C30.2356 76.1223 29.8543 76.038 29.4143 76.038H28.0393V80.262ZM34.9492 82V74.3H37.1272V82H34.9492ZM42.5597 82.154C41.9437 82.154 41.3754 82.055 40.8547 81.857C40.3341 81.659 39.8794 81.3803 39.4907 81.021C39.1094 80.6543 38.8124 80.229 38.5997 79.745C38.3871 79.261 38.2807 78.7293 38.2807 78.15C38.2807 77.5707 38.3871 77.039 38.5997 76.555C38.8124 76.071 39.1094 75.6493 39.4907 75.29C39.8794 74.9233 40.3341 74.641 40.8547 74.443C41.3754 74.245 41.9437 74.146 42.5597 74.146C43.1831 74.146 43.7514 74.245 44.2647 74.443C44.7854 74.641 45.2364 74.9233 45.6177 75.29C45.9991 75.6493 46.2961 76.071 46.5087 76.555C46.7287 77.039 46.8387 77.5707 46.8387 78.15C46.8387 78.7293 46.7287 79.2647 46.5087 79.756C46.2961 80.24 45.9991 80.6617 45.6177 81.021C45.2364 81.3803 44.7854 81.659 44.2647 81.857C43.7514 82.055 43.1831 82.154 42.5597 82.154ZM42.5597 80.35C42.8531 80.35 43.1244 80.2987 43.3737 80.196C43.6304 80.0933 43.8504 79.9467 44.0337 79.756C44.2244 79.558 44.3711 79.3233 44.4737 79.052C44.5837 78.7807 44.6387 78.48 44.6387 78.15C44.6387 77.8127 44.5837 77.512 44.4737 77.248C44.3711 76.9767 44.2244 76.7457 44.0337 76.555C43.8504 76.357 43.6304 76.2067 43.3737 76.104C43.1244 76.0013 42.8531 75.95 42.5597 75.95C42.2664 75.95 41.9914 76.0013 41.7347 76.104C41.4854 76.2067 41.2654 76.357 41.0747 76.555C40.8914 76.7457 40.7447 76.9767 40.6347 77.248C40.5321 77.512 40.4807 77.8127 40.4807 78.15C40.4807 78.48 40.5321 78.7807 40.6347 79.052C40.7447 79.3233 40.8914 79.558 41.0747 79.756C41.2654 79.9467 41.4854 80.0933 41.7347 80.196C41.9914 80.2987 42.2664 80.35 42.5597 80.35ZM47.9795 82V74.3H50.1575V80.273H53.8315V82H47.9795ZM58.4582 82.154C57.8422 82.154 57.2738 82.055 56.7532 81.857C56.2325 81.659 55.7778 81.3803 55.3892 81.021C55.0078 80.6543 54.7108 80.229 54.4982 79.745C54.2855 79.261 54.1792 78.7293 54.1792 78.15C54.1792 77.5707 54.2855 77.039 54.4982 76.555C54.7108 76.071 55.0078 75.6493 55.3892 75.29C55.7778 74.9233 56.2325 74.641 56.7532 74.443C57.2738 74.245 57.8422 74.146 58.4582 74.146C59.0815 74.146 59.6498 74.245 60.1632 74.443C60.6838 74.641 61.1348 74.9233 61.5162 75.29C61.8975 75.6493 62.1945 76.071 62.4072 76.555C62.6272 77.039 62.7372 77.5707 62.7372 78.15C62.7372 78.7293 62.6272 79.2647 62.4072 79.756C62.1945 80.24 61.8975 80.6617 61.5162 81.021C61.1348 81.3803 60.6838 81.659 60.1632 81.857C59.6498 82.055 59.0815 82.154 58.4582 82.154ZM58.4582 80.35C58.7515 80.35 59.0228 80.2987 59.2722 80.196C59.5288 80.0933 59.7488 79.9467 59.9322 79.756C60.1228 79.558 60.2695 79.3233 60.3722 79.052C60.4822 78.7807 60.5372 78.48 60.5372 78.15C60.5372 77.8127 60.4822 77.512 60.3722 77.248C60.2695 76.9767 60.1228 76.7457 59.9322 76.555C59.7488 76.357 59.5288 76.2067 59.2722 76.104C59.0228 76.0013 58.7515 75.95 58.4582 75.95C58.1648 75.95 57.8898 76.0013 57.6332 76.104C57.3838 76.2067 57.1638 76.357 56.9732 76.555C56.7898 76.7457 56.6432 76.9767 56.5332 77.248C56.4305 77.512 56.3792 77.8127 56.3792 78.15C56.3792 78.48 56.4305 78.7807 56.5332 79.052C56.6432 79.3233 56.7898 79.558 56.9732 79.756C57.1638 79.9467 57.3838 80.0933 57.6332 80.196C57.8898 80.2987 58.1648 80.35 58.4582 80.35ZM67.7279 82.154C67.1192 82.154 66.5546 82.0587 66.0339 81.868C65.5132 81.67 65.0622 81.3913 64.6809 81.032C64.3069 80.6727 64.0136 80.251 63.8009 79.767C63.5882 79.2757 63.4819 78.7367 63.4819 78.15C63.4819 77.5633 63.5882 77.028 63.8009 76.544C64.0136 76.0527 64.3106 75.6273 64.6919 75.268C65.0732 74.9087 65.5242 74.6337 66.0449 74.443C66.5729 74.245 67.1486 74.146 67.7719 74.146C68.4979 74.146 69.1469 74.267 69.7189 74.509C70.2909 74.751 70.7639 75.0993 71.1379 75.554L69.7519 76.808C69.4879 76.522 69.2019 76.3093 68.8939 76.17C68.5932 76.0233 68.2559 75.95 67.8819 75.95C67.5519 75.95 67.2512 76.0013 66.9799 76.104C66.7086 76.2067 66.4776 76.357 66.2869 76.555C66.0962 76.7457 65.9459 76.9767 65.8359 77.248C65.7332 77.512 65.6819 77.8127 65.6819 78.15C65.6819 78.4727 65.7332 78.7697 65.8359 79.041C65.9459 79.3123 66.0962 79.547 66.2869 79.745C66.4776 79.9357 66.7049 80.086 66.9689 80.196C67.2402 80.2987 67.5372 80.35 67.8599 80.35C68.1826 80.35 68.4979 80.2987 68.8059 80.196C69.1139 80.086 69.4256 79.9027 69.7409 79.646L70.9619 81.175C70.5219 81.4903 70.0122 81.7323 69.4329 81.901C68.8536 82.0697 68.2852 82.154 67.7279 82.154ZM69.0369 80.889V77.985H70.9619V81.175L69.0369 80.889ZM72.3428 82V74.3H74.5208V82H72.3428ZM78.0723 77.281H81.6473V78.909H78.0723V77.281ZM78.2263 80.317H82.2523V82H76.0703V74.3H82.1093V75.983H78.2263V80.317Z" fill="#9644FF"/>
<rect x="9.5" y="1.5" width="64" height="64" rx="6.5" fill="white"/>
<rect x="9.5" y="1.5" width="64" height="64" rx="6.5" stroke="#9644FF" stroke-width="3"/>
<rect width="2.40918" height="2.40918" transform="matrix(-1 0 0 1 23.6367 17.4092)" fill="#777779"/>
<rect width="2.40918" height="2.40918" transform="matrix(-1 0 0 1 26.0459 31.8643)" fill="#777779"/>
<rect width="2.40918" height="2.40918" transform="matrix(-1 0 0 1 30.8643 34.2734)" fill="#777779"/>
<rect width="2.40918" height="2.40918" transform="matrix(-1 0 0 1 30.8643 41.501)" fill="#777779"/>
<rect width="2.40918" height="2.40918" transform="matrix(-1 0 0 1 54.9561 34.2734)" fill="#777779"/>
<rect width="2.40918" height="2.40918" transform="matrix(-1 0 0 1 57.3652 34.2734)" fill="#777779"/>
<rect width="2.40918" height="2.40918" transform="matrix(-1 0 0 1 40.501 41.501)" fill="#777779"/>
<rect width="3.91492" height="2.40918" transform="matrix(-1 0 0 1 42.0068 39.0919)" fill="#777779"/>
<rect width="11.1425" height="2.40918" transform="matrix(-1 0 0 1 42.0068 36.6827)" fill="#777779"/>
<rect width="2.40918" height="2.40918" transform="matrix(-1 0 0 1 16.4092 29.4551)" fill="#777779"/>
<rect width="2.40918" height="14.4551" transform="matrix(-1 0 0 1 28.4551 24.6367)" fill="#777779"/>
<rect width="2.40918" height="4.81837" transform="matrix(-1 0 0 1 21.2275 19.8184)" fill="#777779"/>
<rect width="2.40918" height="4.81837" transform="matrix(-1 0 0 1 18.8184 24.6367)" fill="#777779"/>
<rect width="2.40918" height="2.40918" transform="matrix(-1 0 0 1 26.0459 15)" fill="#777779"/>
<rect width="2.40918" height="2.40918" transform="matrix(-1 0 0 1 28.4551 17.4092)" fill="#777779"/>
<rect width="2.40918" height="2.40918" transform="matrix(-1 0 0 1 42.9102 31.8643)" fill="#777779"/>
<rect width="4.81837" height="2.40918" transform="matrix(-1 0 0 1 35.6826 24.6367)" fill="#777779"/>
<rect width="2.40918" height="4.81837" transform="matrix(-1 0 0 1 30.8643 19.8184)" fill="#777779"/>
<rect x="59.7744" y="17.4092" width="2.40918" height="2.40918" fill="#777779"/>
<rect x="57.3652" y="31.8643" width="2.40918" height="2.40918" fill="#777779"/>
<rect x="52.5469" y="34.2734" width="2.40918" height="2.40918" fill="#777779"/>
<rect x="52.5469" y="41.501" width="2.40918" height="2.40918" fill="#777779"/>
<rect x="28.4551" y="34.2734" width="2.40918" height="2.40918" fill="#777779"/>
<rect x="26.0459" y="34.2734" width="2.40918" height="2.40918" fill="#777779"/>
<rect x="42.9102" y="41.501" width="2.40918" height="2.40918" fill="#777779"/>
<rect x="41.4043" y="39.0919" width="3.91492" height="2.40918" fill="#777779"/>
<rect x="41.4043" y="36.6827" width="11.1425" height="2.40918" fill="#777779"/>
<rect x="67.002" y="29.4551" width="2.40918" height="2.40918" fill="#777779"/>
<rect x="54.9561" y="24.6367" width="2.40918" height="14.4551" fill="#777779"/>
<rect x="62.1836" y="19.8184" width="2.40918" height="4.81837" fill="#777779"/>
<rect x="64.5928" y="24.6367" width="2.40918" height="4.81837" fill="#777779"/>
<rect x="57.3652" y="15" width="2.40918" height="2.40918" fill="#777779"/>
<rect x="54.9561" y="17.4092" width="2.40918" height="2.40918" fill="#777779"/>
<rect x="40.501" y="31.8643" width="2.40918" height="2.40918" fill="#777779"/>
<rect x="47.7285" y="24.6367" width="4.81837" height="2.40918" fill="#777779"/>
<rect x="52.5469" y="19.8184" width="2.40918" height="4.81837" fill="#777779"/>
<rect x="57.3652" y="17.4092" width="2.40918" height="2.40918" fill="#A9A9AA"/>
<rect x="59.7744" y="19.8184" width="2.40918" height="2.40918" fill="#A9A9AA"/>
<rect x="62.1836" y="24.6367" width="2.40918" height="2.40918" fill="#A9A9AA"/>
<rect x="64.5928" y="29.4551" width="2.40918" height="2.40918" fill="#A9A9AA"/>
<rect x="57.3652" y="29.4551" width="2.40918" height="2.40918" fill="#A9A9AA"/>
<rect x="50.1377" y="22.2275" width="2.40918" height="2.40918" fill="#A9A9AA"/>
<rect x="45.3193" y="22.2275" width="2.40918" height="2.40918" fill="#A9A9AA"/>
<rect x="42.9102" y="29.4551" width="2.40918" height="2.40918" fill="#A9A9AA"/>
<rect x="50.1377" y="43.9102" width="2.40918" height="2.40918" fill="#A9A9AA"/>
<rect x="35.6826" y="43.9102" width="2.40918" height="2.40918" fill="#A9A9AA"/>
<rect x="52.5469" y="36.6826" width="2.40918" height="4.81837" fill="#A9A9AA"/>
<rect x="28.4551" y="36.6826" width="2.40918" height="4.81837" fill="#A9A9AA"/>
<rect x="21.2275" y="22.2275" width="2.40918" height="9.63673" fill="#CACACC"/>
<rect x="23.6367" y="24.6367" width="2.40918" height="4.81837" fill="#CACACC"/>
<rect x="18.8184" y="27.0459" width="2.40918" height="4.81837" fill="#CACACC"/>
<rect x="26.0459" y="19.8184" width="2.40918" height="4.81837" fill="#CACACC"/>
<rect x="23.6367" y="19.8184" width="2.40918" height="2.40918" fill="#CACACC"/>
<rect x="54.9561" y="22.2275" width="2.40918" height="2.40918" fill="#CACACC"/>
<rect x="57.3652" y="24.6367" width="2.40918" height="4.81837" fill="#CACACC"/>
<rect x="45.3193" y="39.0918" width="2.40918" height="4.81837" fill="#CACACC"/>
<rect x="50.1377" y="34.2734" width="2.40918" height="2.40918" fill="#CACACC"/>
<rect x="40.501" y="34.2734" width="2.40918" height="2.40918" fill="#CACACC"/>
<rect x="30.8643" y="34.2734" width="2.40918" height="2.40918" fill="#CACACC"/>
<rect x="30.8643" y="39.0918" width="2.40918" height="4.81837" fill="#CACACC"/>
<rect x="50.1377" y="39.0918" width="2.40918" height="4.81837" fill="#CACACC"/>
<rect x="35.6826" y="39.0918" width="2.40918" height="4.81837" fill="#CACACC"/>
<rect x="62.1836" y="27.0459" width="2.40918" height="4.81837" fill="#CACACC"/>
<rect x="59.7744" y="22.2275" width="2.40918" height="9.63673" fill="#CACACC"/>
<rect x="54.9561" y="19.8184" width="4.81837" height="2.40918" fill="#CACACC"/>
<rect x="45.3193" y="43.9102" width="2.40918" height="2.40918" fill="#A9A9AA"/>
<rect x="30.8643" y="43.9102" width="2.40918" height="2.40918" fill="#A9A9AA"/>
<rect x="38.0918" y="29.4551" width="2.40918" height="7.22755" fill="#A9A9AA"/>
<rect x="33.2734" y="27.0459" width="4.81837" height="2.40918" fill="#A9A9AA"/>
<rect x="35.6826" y="22.2275" width="2.40918" height="2.40918" fill="#A9A9AA"/>
<rect x="30.8643" y="22.2275" width="2.40918" height="2.40918" fill="#A9A9AA"/>
<rect x="28.4551" y="24.6367" width="2.40918" height="9.63673" fill="#A9A9AA"/>
<rect x="23.6367" y="17.4092" width="2.40918" height="2.40918" fill="#A9A9AA"/>
<rect x="21.2275" y="19.8184" width="2.40918" height="2.40918" fill="#A9A9AA"/>
<rect x="18.8184" y="24.6367" width="2.40918" height="2.40918" fill="#A9A9AA"/>
<rect x="16.4092" y="29.4551" width="2.40918" height="2.40918" fill="#A9A9AA"/>
<rect x="23.6367" y="29.4551" width="2.40918" height="2.40918" fill="#A9A9AA"/>
<rect x="45.3193" y="27.0459" width="7.22755" height="2.40918" fill="#A9A9AA"/>
<rect x="52.5469" y="24.6367" width="2.40918" height="9.63673" fill="#A9A9AA"/>
<rect x="23.6367" y="22.2275" width="2.40918" height="2.40918" fill="white"/>
<rect x="33.2734" y="22.2275" width="2.40918" height="2.40918" fill="white"/>
<rect x="35.6826" y="24.6367" width="2.40918" height="2.40918" fill="white"/>
<rect x="38.0918" y="27.0459" width="2.40918" height="2.40918" fill="white"/>
<rect x="40.501" y="29.4551" width="2.40918" height="2.40918" fill="white"/>
<rect x="42.9102" y="27.0459" width="2.40918" height="2.40918" fill="white"/>
<rect x="45.3193" y="24.6367" width="2.40918" height="2.40918" fill="white"/>
<rect x="47.7285" y="22.2275" width="2.40918" height="2.40918" fill="white"/>
<rect x="57.3652" y="22.2275" width="2.40918" height="2.40918" fill="white"/>
<rect x="30.8643" y="27.0459" width="2.40918" height="7.22755" fill="white"/>
<rect x="33.2734" y="29.4551" width="2.40918" height="7.22755" fill="white"/>
<rect x="33.2734" y="39.0918" width="2.40918" height="4.81837" fill="white"/>
<rect x="47.7285" y="39.0918" width="2.40918" height="4.81837" fill="white"/>
<rect x="42.9102" y="31.8643" width="2.40918" height="4.81837" fill="white"/>
<rect x="45.3193" y="29.4551" width="2.40918" height="7.22755" fill="white"/>
<rect x="47.7285" y="29.4551" width="2.40918" height="7.22755" fill="white"/>
<rect x="50.1377" y="29.4551" width="2.40918" height="4.81837" fill="white"/>
<rect x="35.6826" y="29.4551" width="2.40918" height="7.22755" fill="white"/>
<rect x="30.8643" y="43.9102" width="2.40918" height="2.40918" fill="#A9A9AA"/>
<rect x="30.8643" y="46.3194" width="4.81837" height="2.40918" fill="#616161"/>
<rect x="35.6826" y="43.9102" width="2.40918" height="2.40918" fill="#A9A9AA"/>
<rect x="35.6826" y="46.3194" width="2.40918" height="2.40918" fill="#4F4F4F"/>
<rect x="38.0918" y="43.9102" width="2.40918" height="4.81837" fill="#373737"/>
<rect x="28.4551" y="43.9102" width="2.40918" height="4.81837" fill="#373737"/>
<rect x="30.8643" y="51.1378" width="2.40918" height="7.22755" transform="rotate(-90 30.8643 51.1378)" fill="#373737"/>
<rect x="33.2734" y="43.9102" width="2.40918" height="2.40918" fill="#CACACC"/>
<rect width="2.40918" height="2.40918" transform="matrix(-1 0 0 1 52.5469 43.9102)" fill="#A9A9AA"/>
<rect width="4.81837" height="2.40918" transform="matrix(-1 0 0 1 52.5469 46.3194)" fill="#616161"/>
<rect width="2.40918" height="2.40918" transform="matrix(-1 0 0 1 47.7285 43.9102)" fill="#A9A9AA"/>
<rect width="2.40918" height="2.40918" transform="matrix(-1 0 0 1 47.7285 46.3194)" fill="#4F4F4F"/>
<rect width="2.40918" height="4.81837" transform="matrix(-1 0 0 1 45.3193 43.9102)" fill="#373737"/>
<rect width="2.40918" height="4.81837" transform="matrix(-1 0 0 1 54.9561 43.9102)" fill="#373737"/>
<rect width="2.40918" height="7.22755" transform="matrix(4.37114e-08 -1 -1 -4.37114e-08 52.5469 51.1378)" fill="#373737"/>
<rect width="2.40918" height="2.40918" transform="matrix(-1 0 0 1 50.1377 43.9102)" fill="#CACACC"/>
<rect width="2.40918" height="4.81837" transform="matrix(-1 0 0 1 42.9102 24.6367)" fill="#9644FF"/>
<rect width="2.40918" height="2.40918" transform="matrix(-1 0 0 1 42.9102 22.2275)" fill="#7F1BFF"/>
<rect width="2.40918" height="2.40918" transform="matrix(-1 0 0 1 40.501 24.6367)" fill="#7F1BFF"/>
<rect width="2.40918" height="2.40918" transform="matrix(-1 0 0 1 45.3193 24.6367)" fill="#7F1BFF"/>
</svg>
