<svg width="78" height="85" viewBox="0 0 78 85" fill="none" xmlns="http://www.w3.org/2000/svg">
<rect x="9.5" y="1.5" width="64" height="64" rx="6.5" fill="white"/>
<rect x="9.5" y="1.5" width="64" height="64" rx="6.5" stroke="#42C686" stroke-width="3"/>
<rect width="2.40918" height="2.40918" transform="matrix(-1 0 0 1 23.6367 17.4092)" fill="#777779"/>
<rect width="2.40918" height="2.40918" transform="matrix(-1 0 0 1 26.0459 31.8643)" fill="#777779"/>
<rect width="2.40918" height="2.40918" transform="matrix(-1 0 0 1 30.8643 34.2734)" fill="#777779"/>
<rect width="2.40918" height="2.40918" transform="matrix(-1 0 0 1 30.8643 41.501)" fill="#777779"/>
<rect width="2.40918" height="2.40918" transform="matrix(-1 0 0 1 54.9561 34.2734)" fill="#777779"/>
<rect width="2.40918" height="2.40918" transform="matrix(-1 0 0 1 57.3652 34.2734)" fill="#777779"/>
<rect width="2.40918" height="2.40918" transform="matrix(-1 0 0 1 40.501 41.501)" fill="#777779"/>
<rect width="3.91492" height="2.40918" transform="matrix(-1 0 0 1 42.0068 39.0919)" fill="#777779"/>
<rect width="11.1425" height="2.40918" transform="matrix(-1 0 0 1 42.0068 36.6827)" fill="#777779"/>
<rect width="2.40918" height="2.40918" transform="matrix(-1 0 0 1 16.4092 29.4551)" fill="#777779"/>
<rect width="2.40918" height="14.4551" transform="matrix(-1 0 0 1 28.4551 24.6367)" fill="#777779"/>
<rect width="2.40918" height="4.81837" transform="matrix(-1 0 0 1 21.2275 19.8184)" fill="#777779"/>
<rect width="2.40918" height="4.81837" transform="matrix(-1 0 0 1 18.8184 24.6367)" fill="#777779"/>
<rect width="2.40918" height="2.40918" transform="matrix(-1 0 0 1 26.0459 15)" fill="#777779"/>
<rect width="2.40918" height="2.40918" transform="matrix(-1 0 0 1 28.4551 17.4092)" fill="#777779"/>
<rect width="2.40918" height="2.40918" transform="matrix(-1 0 0 1 42.9102 31.8643)" fill="#777779"/>
<rect width="4.81837" height="2.40918" transform="matrix(-1 0 0 1 35.6826 24.6367)" fill="#777779"/>
<rect width="2.40918" height="4.81837" transform="matrix(-1 0 0 1 30.8643 19.8184)" fill="#777779"/>
<rect x="59.7744" y="17.4092" width="2.40918" height="2.40918" fill="#777779"/>
<rect x="57.3652" y="31.8643" width="2.40918" height="2.40918" fill="#777779"/>
<rect x="52.5469" y="34.2734" width="2.40918" height="2.40918" fill="#777779"/>
<rect x="52.5469" y="41.501" width="2.40918" height="2.40918" fill="#777779"/>
<rect x="28.4551" y="34.2734" width="2.40918" height="2.40918" fill="#777779"/>
<rect x="26.0459" y="34.2734" width="2.40918" height="2.40918" fill="#777779"/>
<rect x="42.9102" y="41.501" width="2.40918" height="2.40918" fill="#777779"/>
<rect x="41.4043" y="39.0919" width="3.91492" height="2.40918" fill="#777779"/>
<rect x="41.4043" y="36.6827" width="11.1425" height="2.40918" fill="#777779"/>
<rect x="67.002" y="29.4551" width="2.40918" height="2.40918" fill="#777779"/>
<rect x="54.9561" y="24.6367" width="2.40918" height="14.4551" fill="#777779"/>
<rect x="62.1836" y="19.8184" width="2.40918" height="4.81837" fill="#777779"/>
<rect x="64.5928" y="24.6367" width="2.40918" height="4.81837" fill="#777779"/>
<rect x="57.3652" y="15" width="2.40918" height="2.40918" fill="#777779"/>
<rect x="54.9561" y="17.4092" width="2.40918" height="2.40918" fill="#777779"/>
<rect x="40.501" y="31.8643" width="2.40918" height="2.40918" fill="#777779"/>
<rect x="47.7285" y="24.6367" width="4.81837" height="2.40918" fill="#777779"/>
<rect x="52.5469" y="19.8184" width="2.40918" height="4.81837" fill="#777779"/>
<rect x="57.3652" y="17.4092" width="2.40918" height="2.40918" fill="#A9A9AA"/>
<rect x="59.7744" y="19.8184" width="2.40918" height="2.40918" fill="#A9A9AA"/>
<rect x="62.1836" y="24.6367" width="2.40918" height="2.40918" fill="#A9A9AA"/>
<rect x="64.5928" y="29.4551" width="2.40918" height="2.40918" fill="#A9A9AA"/>
<rect x="57.3652" y="29.4551" width="2.40918" height="2.40918" fill="#A9A9AA"/>
<rect x="50.1377" y="22.2275" width="2.40918" height="2.40918" fill="#A9A9AA"/>
<rect x="45.3193" y="22.2275" width="2.40918" height="2.40918" fill="#A9A9AA"/>
<rect x="42.9102" y="29.4551" width="2.40918" height="2.40918" fill="#A9A9AA"/>
<rect x="50.1377" y="43.9102" width="2.40918" height="2.40918" fill="#A9A9AA"/>
<rect x="35.6826" y="43.9102" width="2.40918" height="2.40918" fill="#A9A9AA"/>
<rect x="52.5469" y="36.6826" width="2.40918" height="4.81837" fill="#A9A9AA"/>
<rect x="28.4551" y="36.6826" width="2.40918" height="4.81837" fill="#A9A9AA"/>
<rect x="21.2275" y="22.2275" width="2.40918" height="9.63673" fill="#CACACC"/>
<rect x="23.6367" y="24.6367" width="2.40918" height="4.81837" fill="#CACACC"/>
<rect x="18.8184" y="27.0459" width="2.40918" height="4.81837" fill="#CACACC"/>
<rect x="26.0459" y="19.8184" width="2.40918" height="4.81837" fill="#CACACC"/>
<rect x="23.6367" y="19.8184" width="2.40918" height="2.40918" fill="#CACACC"/>
<rect x="54.9565" y="22.2275" width="2.40918" height="2.40918" fill="#CACACC"/>
<rect x="57.3652" y="24.6367" width="2.40918" height="4.81837" fill="#CACACC"/>
<rect x="45.3193" y="39.0918" width="2.40918" height="4.81837" fill="#CACACC"/>
<rect x="50.1377" y="34.2734" width="2.40918" height="2.40918" fill="#CACACC"/>
<rect x="40.501" y="34.2734" width="2.40918" height="2.40918" fill="#CACACC"/>
<rect x="30.8643" y="34.2734" width="2.40918" height="2.40918" fill="#CACACC"/>
<rect x="30.8643" y="39.0918" width="2.40918" height="4.81837" fill="#CACACC"/>
<rect x="50.1377" y="39.0918" width="2.40918" height="4.81837" fill="#CACACC"/>
<rect x="35.6826" y="39.0918" width="2.40918" height="4.81837" fill="#CACACC"/>
<rect x="62.1836" y="27.0459" width="2.40918" height="4.81837" fill="#CACACC"/>
<rect x="59.7744" y="22.2275" width="2.40918" height="9.63673" fill="#CACACC"/>
<rect x="54.9565" y="19.8184" width="4.81837" height="2.40918" fill="#CACACC"/>
<rect x="45.3193" y="43.9102" width="2.40918" height="2.40918" fill="#A9A9AA"/>
<rect x="30.8643" y="43.9102" width="2.40918" height="2.40918" fill="#A9A9AA"/>
<rect x="38.0918" y="29.4551" width="2.40918" height="7.22755" fill="#A9A9AA"/>
<rect x="33.2734" y="27.0459" width="4.81837" height="2.40918" fill="#A9A9AA"/>
<rect x="35.6826" y="22.2275" width="2.40918" height="2.40918" fill="#A9A9AA"/>
<rect x="30.8643" y="22.2275" width="2.40918" height="2.40918" fill="#A9A9AA"/>
<rect x="28.4551" y="24.6367" width="2.40918" height="9.63673" fill="#A9A9AA"/>
<rect x="23.6367" y="17.4092" width="2.40918" height="2.40918" fill="#A9A9AA"/>
<rect x="21.2275" y="19.8184" width="2.40918" height="2.40918" fill="#A9A9AA"/>
<rect x="18.8184" y="24.6367" width="2.40918" height="2.40918" fill="#A9A9AA"/>
<rect x="16.4092" y="29.4551" width="2.40918" height="2.40918" fill="#A9A9AA"/>
<rect x="23.6367" y="29.4551" width="2.40918" height="2.40918" fill="#A9A9AA"/>
<rect x="45.3193" y="27.0459" width="7.22755" height="2.40918" fill="#A9A9AA"/>
<rect x="52.5469" y="24.6367" width="2.40918" height="9.63673" fill="#A9A9AA"/>
<rect x="23.6367" y="22.2275" width="2.40918" height="2.40918" fill="white"/>
<rect x="33.2734" y="22.2275" width="2.40918" height="2.40918" fill="white"/>
<rect x="35.6826" y="24.6367" width="2.40918" height="2.40918" fill="white"/>
<rect x="38.0918" y="27.0459" width="2.40918" height="2.40918" fill="white"/>
<rect x="40.501" y="29.4551" width="2.40918" height="2.40918" fill="white"/>
<rect x="42.9102" y="27.0459" width="2.40918" height="2.40918" fill="white"/>
<rect x="45.3193" y="24.6367" width="2.40918" height="2.40918" fill="white"/>
<rect x="47.7285" y="22.2275" width="2.40918" height="2.40918" fill="white"/>
<rect x="57.3652" y="22.2275" width="2.40918" height="2.40918" fill="white"/>
<rect x="30.8643" y="27.0459" width="2.40918" height="7.22755" fill="white"/>
<rect x="33.2734" y="29.4551" width="2.40918" height="7.22755" fill="white"/>
<rect x="33.2734" y="39.0918" width="2.40918" height="4.81837" fill="white"/>
<rect x="47.7285" y="39.0918" width="2.40918" height="4.81837" fill="white"/>
<rect x="42.9102" y="31.8643" width="2.40918" height="4.81837" fill="white"/>
<rect x="45.3193" y="29.4551" width="2.40918" height="7.22755" fill="white"/>
<rect x="47.7285" y="29.4551" width="2.40918" height="7.22755" fill="white"/>
<rect x="50.1377" y="29.4551" width="2.40918" height="4.81837" fill="white"/>
<rect x="35.6826" y="29.4551" width="2.40918" height="7.22755" fill="white"/>
<rect x="30.8643" y="43.9102" width="2.40918" height="2.40918" fill="#A9A9AA"/>
<rect x="30.8643" y="46.3194" width="4.81837" height="2.40918" fill="#616161"/>
<rect x="35.6826" y="43.9102" width="2.40918" height="2.40918" fill="#A9A9AA"/>
<rect x="35.6826" y="46.3194" width="2.40918" height="2.40918" fill="#4F4F4F"/>
<rect x="38.0918" y="43.9102" width="2.40918" height="4.81837" fill="#373737"/>
<rect x="28.4551" y="43.9102" width="2.40918" height="4.81837" fill="#373737"/>
<rect x="30.8643" y="51.1378" width="2.40918" height="7.22755" transform="rotate(-90 30.8643 51.1378)" fill="#373737"/>
<rect x="33.2734" y="43.9102" width="2.40918" height="2.40918" fill="#CACACC"/>
<rect width="2.40918" height="2.40918" transform="matrix(-1 0 0 1 52.5469 43.9102)" fill="#A9A9AA"/>
<rect width="4.81837" height="2.40918" transform="matrix(-1 0 0 1 52.5469 46.3194)" fill="#616161"/>
<rect width="2.40918" height="2.40918" transform="matrix(-1 0 0 1 47.7285 43.9102)" fill="#A9A9AA"/>
<rect width="2.40918" height="2.40918" transform="matrix(-1 0 0 1 47.7285 46.3194)" fill="#4F4F4F"/>
<rect width="2.40918" height="4.81837" transform="matrix(-1 0 0 1 45.3193 43.9102)" fill="#373737"/>
<rect width="2.40918" height="4.81837" transform="matrix(-1 0 0 1 54.9561 43.9102)" fill="#373737"/>
<rect width="2.40918" height="7.22755" transform="matrix(4.37114e-08 -1 -1 -4.37114e-08 52.5469 51.1378)" fill="#373737"/>
<rect width="2.40918" height="2.40918" transform="matrix(-1 0 0 1 50.1377 43.9102)" fill="#CACACC"/>
<rect width="2.40918" height="4.81837" transform="matrix(-1 0 0 1 42.9102 24.6367)" fill="#42C686"/>
<rect width="2.40918" height="2.40918" transform="matrix(-1 0 0 1 42.9102 22.2275)" fill="#39B077"/>
<rect width="2.40918" height="2.40918" transform="matrix(-1 0 0 1 40.501 24.6367)" fill="#39B077"/>
<rect width="2.40918" height="2.40918" transform="matrix(-1 0 0 1 45.3193 24.6367)" fill="#39B077"/>
<path d="M0.856426 82V74.3H2.64943L6.89543 79.426H6.04843V74.3H8.18243V82H6.38943L2.14343 76.874H2.99043V82H0.856426ZM11.7207 77.281H15.2957V78.909H11.7207V77.281ZM11.8747 80.317H15.9007V82H9.71873V74.3H15.7577V75.983H11.8747V80.317ZM20.6624 82.154C19.5257 82.154 18.6384 81.8423 18.0004 81.219C17.3624 80.5957 17.0434 79.712 17.0434 78.568V74.3H19.2214V78.502C19.2214 79.162 19.3497 79.635 19.6064 79.921C19.8704 80.207 20.2297 80.35 20.6844 80.35C21.139 80.35 21.4947 80.207 21.7514 79.921C22.008 79.635 22.1364 79.162 22.1364 78.502V74.3H24.2814V78.568C24.2814 79.712 23.9624 80.5957 23.3244 81.219C22.6864 81.8423 21.799 82.154 20.6624 82.154ZM25.7568 82V74.3H29.2768C29.9808 74.3 30.5858 74.4137 31.0918 74.641C31.6051 74.8683 32.0011 75.1983 32.2798 75.631C32.5585 76.0563 32.6978 76.5623 32.6978 77.149C32.6978 77.7283 32.5585 78.2307 32.2798 78.656C32.0011 79.074 31.6051 79.3967 31.0918 79.624C30.5858 79.844 29.9808 79.954 29.2768 79.954H26.9668L27.9348 79.041V82H25.7568ZM30.5198 82L28.6058 79.195H30.9268L32.8518 82H30.5198ZM27.9348 79.272L26.9668 78.271H29.1448C29.5995 78.271 29.9368 78.172 30.1568 77.974C30.3842 77.776 30.4978 77.501 30.4978 77.149C30.4978 76.7897 30.3842 76.511 30.1568 76.313C29.9368 76.115 29.5995 76.016 29.1448 76.016H26.9668L27.9348 75.015V79.272ZM37.7824 82.154C37.1664 82.154 36.5981 82.055 36.0774 81.857C35.5567 81.659 35.1021 81.3803 34.7134 81.021C34.3321 80.6543 34.0351 80.229 33.8224 79.745C33.6097 79.261 33.5034 78.7293 33.5034 78.15C33.5034 77.5707 33.6097 77.039 33.8224 76.555C34.0351 76.071 34.3321 75.6493 34.7134 75.29C35.1021 74.9233 35.5567 74.641 36.0774 74.443C36.5981 74.245 37.1664 74.146 37.7824 74.146C38.4057 74.146 38.9741 74.245 39.4874 74.443C40.0081 74.641 40.4591 74.9233 40.8404 75.29C41.2217 75.6493 41.5187 76.071 41.7314 76.555C41.9514 77.039 42.0614 77.5707 42.0614 78.15C42.0614 78.7293 41.9514 79.2647 41.7314 79.756C41.5187 80.24 41.2217 80.6617 40.8404 81.021C40.4591 81.3803 40.0081 81.659 39.4874 81.857C38.9741 82.055 38.4057 82.154 37.7824 82.154ZM37.7824 80.35C38.0757 80.35 38.3471 80.2987 38.5964 80.196C38.8531 80.0933 39.0731 79.9467 39.2564 79.756C39.4471 79.558 39.5937 79.3233 39.6964 79.052C39.8064 78.7807 39.8614 78.48 39.8614 78.15C39.8614 77.8127 39.8064 77.512 39.6964 77.248C39.5937 76.9767 39.4471 76.7457 39.2564 76.555C39.0731 76.357 38.8531 76.2067 38.5964 76.104C38.3471 76.0013 38.0757 75.95 37.7824 75.95C37.4891 75.95 37.2141 76.0013 36.9574 76.104C36.7081 76.2067 36.4881 76.357 36.2974 76.555C36.1141 76.7457 35.9674 76.9767 35.8574 77.248C35.7547 77.512 35.7034 77.8127 35.7034 78.15C35.7034 78.48 35.7547 78.7807 35.8574 79.052C35.9674 79.3233 36.1141 79.558 36.2974 79.756C36.4881 79.9467 36.7081 80.0933 36.9574 80.196C37.2141 80.2987 37.4891 80.35 37.7824 80.35ZM43.2021 82V74.3H45.3801V80.273H49.0541V82H43.2021ZM53.6808 82.154C53.0648 82.154 52.4965 82.055 51.9758 81.857C51.4552 81.659 51.0005 81.3803 50.6118 81.021C50.2305 80.6543 49.9335 80.229 49.7208 79.745C49.5082 79.261 49.4018 78.7293 49.4018 78.15C49.4018 77.5707 49.5082 77.039 49.7208 76.555C49.9335 76.071 50.2305 75.6493 50.6118 75.29C51.0005 74.9233 51.4552 74.641 51.9758 74.443C52.4965 74.245 53.0648 74.146 53.6808 74.146C54.3042 74.146 54.8725 74.245 55.3858 74.443C55.9065 74.641 56.3575 74.9233 56.7388 75.29C57.1202 75.6493 57.4172 76.071 57.6298 76.555C57.8498 77.039 57.9598 77.5707 57.9598 78.15C57.9598 78.7293 57.8498 79.2647 57.6298 79.756C57.4172 80.24 57.1202 80.6617 56.7388 81.021C56.3575 81.3803 55.9065 81.659 55.3858 81.857C54.8725 82.055 54.3042 82.154 53.6808 82.154ZM53.6808 80.35C53.9742 80.35 54.2455 80.2987 54.4948 80.196C54.7515 80.0933 54.9715 79.9467 55.1548 79.756C55.3455 79.558 55.4922 79.3233 55.5948 79.052C55.7048 78.7807 55.7598 78.48 55.7598 78.15C55.7598 77.8127 55.7048 77.512 55.5948 77.248C55.4922 76.9767 55.3455 76.7457 55.1548 76.555C54.9715 76.357 54.7515 76.2067 54.4948 76.104C54.2455 76.0013 53.9742 75.95 53.6808 75.95C53.3875 75.95 53.1125 76.0013 52.8558 76.104C52.6065 76.2067 52.3865 76.357 52.1958 76.555C52.0125 76.7457 51.8658 76.9767 51.7558 77.248C51.6532 77.512 51.6018 77.8127 51.6018 78.15C51.6018 78.48 51.6532 78.7807 51.7558 79.052C51.8658 79.3233 52.0125 79.558 52.1958 79.756C52.3865 79.9467 52.6065 80.0933 52.8558 80.196C53.1125 80.2987 53.3875 80.35 53.6808 80.35ZM62.9506 82.154C62.3419 82.154 61.7772 82.0587 61.2566 81.868C60.7359 81.67 60.2849 81.3913 59.9036 81.032C59.5296 80.6727 59.2362 80.251 59.0236 79.767C58.8109 79.2757 58.7046 78.7367 58.7046 78.15C58.7046 77.5633 58.8109 77.028 59.0236 76.544C59.2362 76.0527 59.5332 75.6273 59.9146 75.268C60.2959 74.9087 60.7469 74.6337 61.2676 74.443C61.7956 74.245 62.3712 74.146 62.9946 74.146C63.7206 74.146 64.3696 74.267 64.9416 74.509C65.5136 74.751 65.9866 75.0993 66.3606 75.554L64.9746 76.808C64.7106 76.522 64.4246 76.3093 64.1166 76.17C63.8159 76.0233 63.4786 75.95 63.1046 75.95C62.7746 75.95 62.4739 76.0013 62.2026 76.104C61.9312 76.2067 61.7002 76.357 61.5096 76.555C61.3189 76.7457 61.1686 76.9767 61.0586 77.248C60.9559 77.512 60.9046 77.8127 60.9046 78.15C60.9046 78.4727 60.9559 78.7697 61.0586 79.041C61.1686 79.3123 61.3189 79.547 61.5096 79.745C61.7002 79.9357 61.9276 80.086 62.1916 80.196C62.4629 80.2987 62.7599 80.35 63.0826 80.35C63.4052 80.35 63.7206 80.2987 64.0286 80.196C64.3366 80.086 64.6482 79.9027 64.9636 79.646L66.1846 81.175C65.7446 81.4903 65.2349 81.7323 64.6556 81.901C64.0762 82.0697 63.5079 82.154 62.9506 82.154ZM64.2596 80.889V77.985H66.1846V81.175L64.2596 80.889ZM67.5654 82V74.3H69.7434V82H67.5654ZM73.2949 77.281H76.8699V78.909H73.2949V77.281ZM73.4489 80.317H77.4749V82H71.2929V74.3H77.3319V75.983H73.4489V80.317Z" fill="#42C686"/>
</svg>
