<svg width="83" height="98" viewBox="0 0 83 98" fill="none" xmlns="http://www.w3.org/2000/svg">
<path d="M11.9287 82V74.3H13.7217L16.9117 79.536H15.9657L19.0677 74.3H20.8607L20.8827 82H18.8807L18.8587 77.347H19.1997L16.8787 81.241H15.9107L13.5237 77.347H13.9417V82H11.9287ZM24.4258 77.281H28.0008V78.909H24.4258V77.281ZM24.5798 80.317H28.6058V82H22.4238V74.3H28.4628V75.983H24.5798V80.317ZM29.8144 82V74.3H33.4554C34.3061 74.3 35.0541 74.4577 35.6994 74.773C36.3448 75.0883 36.8471 75.532 37.2064 76.104C37.5731 76.676 37.7564 77.358 37.7564 78.15C37.7564 78.9347 37.5731 79.6167 37.2064 80.196C36.8471 80.768 36.3448 81.2117 35.6994 81.527C35.0541 81.8423 34.3061 82 33.4554 82H29.8144ZM31.9924 80.262H33.3674C33.8074 80.262 34.1888 80.1813 34.5114 80.02C34.8414 79.8513 35.0981 79.6093 35.2814 79.294C35.4648 78.9713 35.5564 78.59 35.5564 78.15C35.5564 77.7027 35.4648 77.3213 35.2814 77.006C35.0981 76.6907 34.8414 76.4523 34.5114 76.291C34.1888 76.1223 33.8074 76.038 33.3674 76.038H31.9924V80.262ZM38.9023 82V74.3H42.4223C43.1263 74.3 43.7313 74.4137 44.2373 74.641C44.7507 74.8683 45.1467 75.1983 45.4253 75.631C45.704 76.0563 45.8433 76.5623 45.8433 77.149C45.8433 77.7283 45.704 78.2307 45.4253 78.656C45.1467 79.0813 44.7507 79.4113 44.2373 79.646C43.7313 79.8733 43.1263 79.987 42.4223 79.987H40.1123L41.0803 79.041V82H38.9023ZM41.0803 79.272L40.1123 78.271H42.2903C42.745 78.271 43.0823 78.172 43.3023 77.974C43.5297 77.776 43.6433 77.501 43.6433 77.149C43.6433 76.7897 43.5297 76.511 43.3023 76.313C43.0823 76.115 42.745 76.016 42.2903 76.016H40.1123L41.0803 75.015V79.272ZM46.9053 82V74.3H49.0833V82H46.9053ZM49.8408 82L53.2068 77.325L53.1958 78.876L49.9618 74.3H52.4148L54.4828 77.281L53.4378 77.292L55.4728 74.3H57.8268L54.5928 78.788V77.248L58.0028 82H55.4948L53.3938 78.865H54.3948L52.3268 82H49.8408ZM60.5088 77.281H64.0838V78.909H60.5088V77.281ZM60.6628 80.317H64.6888V82H58.5068V74.3H64.5458V75.983H60.6628V80.317ZM65.8974 82V74.3H68.0754V80.273H71.7494V82H65.8974ZM2.78279 97.134C2.37946 96.4667 2.06413 95.6967 1.83679 94.824C1.61679 93.944 1.50679 92.998 1.50679 91.986C1.50679 90.974 1.61679 90.028 1.83679 89.148C2.06413 88.2607 2.37946 87.4907 2.78279 86.838H3.53079C3.09813 87.5933 2.77913 88.3963 2.57379 89.247C2.37579 90.0903 2.27679 91.0033 2.27679 91.986C2.27679 92.9687 2.37579 93.8853 2.57379 94.736C2.77913 95.5793 3.09813 96.3787 3.53079 97.134H2.78279ZM5.07191 95V86.838H5.85291V95H5.07191ZM11.645 95V93.724L11.612 93.515V91.381C11.612 90.8897 11.4727 90.512 11.194 90.248C10.9227 89.984 10.5157 89.852 9.97301 89.852C9.59901 89.852 9.24335 89.9143 8.90601 90.039C8.56868 90.1637 8.28268 90.3287 8.04801 90.534L7.69601 89.951C7.98935 89.7017 8.34135 89.511 8.75201 89.379C9.16268 89.2397 9.59535 89.17 10.05 89.17C10.798 89.17 11.3737 89.357 11.777 89.731C12.1877 90.0977 12.393 90.6587 12.393 91.414V95H11.645ZM9.65401 95.055C9.22135 95.055 8.84368 94.9853 8.52101 94.846C8.20568 94.6993 7.96368 94.5013 7.79501 94.252C7.62635 93.9953 7.54201 93.702 7.54201 93.372C7.54201 93.0713 7.61168 92.8 7.75101 92.558C7.89768 92.3087 8.13235 92.1107 8.45501 91.964C8.78501 91.81 9.22501 91.733 9.77501 91.733H11.766V92.316H9.79701C9.23968 92.316 8.85101 92.415 8.63101 92.613C8.41835 92.811 8.31201 93.0567 8.31201 93.35C8.31201 93.68 8.44035 93.944 8.69701 94.142C8.95368 94.34 9.31301 94.439 9.77501 94.439C10.215 94.439 10.5927 94.34 10.908 94.142C11.2307 93.9367 11.4653 93.6433 11.612 93.262L11.788 93.801C11.6413 94.1823 11.3847 94.4867 11.018 94.714C10.6587 94.9413 10.204 95.055 9.65401 95.055ZM17.4953 95.055C16.9893 95.055 16.5346 94.9413 16.1313 94.714C15.728 94.4793 15.409 94.142 15.1743 93.702C14.9396 93.262 14.8223 92.7303 14.8223 92.107C14.8223 91.4763 14.9396 90.9447 15.1743 90.512C15.4163 90.072 15.739 89.7383 16.1423 89.511C16.5456 89.2837 16.9966 89.17 17.4953 89.17C18.0453 89.17 18.5366 89.2947 18.9693 89.544C19.4093 89.786 19.754 90.127 20.0033 90.567C20.2526 91.007 20.3773 91.5203 20.3773 92.107C20.3773 92.6863 20.2526 93.1997 20.0033 93.647C19.754 94.087 19.4093 94.4317 18.9693 94.681C18.5366 94.9303 18.0453 95.055 17.4953 95.055ZM14.5143 95V86.838H15.2953V90.93L15.1853 92.096L15.2623 93.262V95H14.5143ZM17.4403 94.362C17.851 94.362 18.2176 94.2703 18.5403 94.087C18.863 93.8963 19.1196 93.6323 19.3103 93.295C19.501 92.9503 19.5963 92.5543 19.5963 92.107C19.5963 91.6523 19.501 91.2563 19.3103 90.919C19.1196 90.5817 18.863 90.3213 18.5403 90.138C18.2176 89.9473 17.851 89.852 17.4403 89.852C17.0296 89.852 16.6593 89.9473 16.3293 90.138C16.0066 90.3213 15.75 90.5817 15.5593 90.919C15.376 91.2563 15.2843 91.6523 15.2843 92.107C15.2843 92.5543 15.376 92.9503 15.5593 93.295C15.75 93.6323 16.0066 93.8963 16.3293 94.087C16.6593 94.2703 17.0296 94.362 17.4403 94.362ZM24.3234 95.055C23.766 95.055 23.2637 94.9303 22.8164 94.681C22.3764 94.4243 22.028 94.076 21.7714 93.636C21.5147 93.1887 21.3864 92.679 21.3864 92.107C21.3864 91.5277 21.5147 91.018 21.7714 90.578C22.028 90.138 22.3764 89.7933 22.8164 89.544C23.2564 89.2947 23.7587 89.17 24.3234 89.17C24.8954 89.17 25.4014 89.2947 25.8414 89.544C26.2887 89.7933 26.637 90.138 26.8864 90.578C27.143 91.018 27.2714 91.5277 27.2714 92.107C27.2714 92.679 27.143 93.1887 26.8864 93.636C26.637 94.076 26.2887 94.4243 25.8414 94.681C25.394 94.9303 24.888 95.055 24.3234 95.055ZM24.3234 94.362C24.7414 94.362 25.1117 94.2703 25.4344 94.087C25.757 93.8963 26.01 93.6323 26.1934 93.295C26.384 92.9503 26.4794 92.5543 26.4794 92.107C26.4794 91.6523 26.384 91.2563 26.1934 90.919C26.01 90.5817 25.757 90.3213 25.4344 90.138C25.1117 89.9473 24.745 89.852 24.3344 89.852C23.9237 89.852 23.557 89.9473 23.2344 90.138C22.9117 90.3213 22.655 90.5817 22.4644 90.919C22.2737 91.2563 22.1784 91.6523 22.1784 92.107C22.1784 92.5543 22.2737 92.9503 22.4644 93.295C22.655 93.6323 22.9117 93.8963 23.2344 94.087C23.557 94.2703 23.92 94.362 24.3234 94.362ZM28.7817 95.055C28.6204 95.055 28.4811 94.9963 28.3637 94.879C28.2537 94.7617 28.1987 94.6187 28.1987 94.45C28.1987 94.274 28.2537 94.131 28.3637 94.021C28.4811 93.911 28.6204 93.856 28.7817 93.856C28.9431 93.856 29.0787 93.911 29.1887 94.021C29.3061 94.131 29.3647 94.274 29.3647 94.45C29.3647 94.6187 29.3061 94.7617 29.1887 94.879C29.0787 94.9963 28.9431 95.055 28.7817 95.055ZM36.8957 95.055C36.397 95.055 35.946 94.9413 35.5427 94.714C35.1394 94.4793 34.8167 94.1457 34.5747 93.713C34.34 93.273 34.2227 92.7377 34.2227 92.107C34.2227 91.4763 34.34 90.9447 34.5747 90.512C34.8094 90.072 35.1284 89.7383 35.5317 89.511C35.935 89.2837 36.3897 89.17 36.8957 89.17C37.4457 89.17 37.937 89.2947 38.3697 89.544C38.8097 89.786 39.1544 90.1307 39.4037 90.578C39.653 91.018 39.7777 91.5277 39.7777 92.107C39.7777 92.6937 39.653 93.207 39.4037 93.647C39.1544 94.087 38.8097 94.4317 38.3697 94.681C37.937 94.9303 37.4457 95.055 36.8957 95.055ZM33.9147 97.134V89.225H34.6627V90.963L34.5857 92.118L34.6957 93.284V97.134H33.9147ZM36.8407 94.362C37.2514 94.362 37.618 94.2703 37.9407 94.087C38.2634 93.8963 38.52 93.6323 38.7107 93.295C38.9014 92.9503 38.9967 92.5543 38.9967 92.107C38.9967 91.6597 38.9014 91.2673 38.7107 90.93C38.52 90.5927 38.2634 90.3287 37.9407 90.138C37.618 89.9473 37.2514 89.852 36.8407 89.852C36.43 89.852 36.0597 89.9473 35.7297 90.138C35.407 90.3287 35.1504 90.5927 34.9597 90.93C34.7764 91.2673 34.6847 91.6597 34.6847 92.107C34.6847 92.5543 34.7764 92.9503 34.9597 93.295C35.1504 93.6323 35.407 93.8963 35.7297 94.087C36.0597 94.2703 36.43 94.362 36.8407 94.362ZM44.3178 89.17C44.7871 89.17 45.1978 89.2617 45.5498 89.445C45.9091 89.621 46.1878 89.8923 46.3858 90.259C46.5911 90.6257 46.6938 91.0877 46.6938 91.645V95H45.9128V91.722C45.9128 91.1133 45.7588 90.655 45.4508 90.347C45.1501 90.0317 44.7248 89.874 44.1748 89.874C43.7641 89.874 43.4048 89.9583 43.0968 90.127C42.7961 90.2883 42.5614 90.5267 42.3928 90.842C42.2314 91.15 42.1508 91.524 42.1508 91.964V95H41.3698V86.838H42.1508V90.809L41.9968 90.512C42.1801 90.094 42.4734 89.7677 42.8768 89.533C43.2801 89.291 43.7604 89.17 44.3178 89.17ZM52.4224 95V93.724L52.3894 93.515V91.381C52.3894 90.8897 52.25 90.512 51.9714 90.248C51.7 89.984 51.293 89.852 50.7504 89.852C50.3764 89.852 50.0207 89.9143 49.6834 90.039C49.346 90.1637 49.06 90.3287 48.8254 90.534L48.4734 89.951C48.7667 89.7017 49.1187 89.511 49.5294 89.379C49.94 89.2397 50.3727 89.17 50.8274 89.17C51.5754 89.17 52.151 89.357 52.5544 89.731C52.965 90.0977 53.1704 90.6587 53.1704 91.414V95H52.4224ZM50.4314 95.055C49.9987 95.055 49.621 94.9853 49.2984 94.846C48.983 94.6993 48.741 94.5013 48.5724 94.252C48.4037 93.9953 48.3194 93.702 48.3194 93.372C48.3194 93.0713 48.389 92.8 48.5284 92.558C48.675 92.3087 48.9097 92.1107 49.2324 91.964C49.5624 91.81 50.0024 91.733 50.5524 91.733H52.5434V92.316H50.5744C50.017 92.316 49.6284 92.415 49.4084 92.613C49.1957 92.811 49.0894 93.0567 49.0894 93.35C49.0894 93.68 49.2177 93.944 49.4744 94.142C49.731 94.34 50.0904 94.439 50.5524 94.439C50.9924 94.439 51.37 94.34 51.6854 94.142C52.008 93.9367 52.2427 93.6433 52.3894 93.262L52.5654 93.801C52.4187 94.1823 52.162 94.4867 51.7954 94.714C51.436 94.9413 50.9814 95.055 50.4314 95.055ZM55.2916 95V89.225H56.0396V90.798L55.9626 90.523C56.124 90.083 56.3953 89.7493 56.7766 89.522C57.158 89.2873 57.631 89.17 58.1956 89.17V89.929C58.1663 89.929 58.137 89.929 58.1076 89.929C58.0783 89.9217 58.049 89.918 58.0196 89.918C57.411 89.918 56.9343 90.105 56.5896 90.479C56.245 90.8457 56.0726 91.37 56.0726 92.052V95H55.2916ZM66.8367 89.17C67.3061 89.17 67.7131 89.2617 68.0577 89.445C68.4097 89.621 68.6811 89.8923 68.8717 90.259C69.0697 90.6257 69.1687 91.0877 69.1687 91.645V95H68.3877V91.722C68.3877 91.1133 68.2411 90.655 67.9477 90.347C67.6617 90.0317 67.2547 89.874 66.7267 89.874C66.3307 89.874 65.9861 89.9583 65.6927 90.127C65.4067 90.2883 65.1831 90.5267 65.0217 90.842C64.8677 91.15 64.7907 91.524 64.7907 91.964V95H64.0097V91.722C64.0097 91.1133 63.8631 90.655 63.5697 90.347C63.2764 90.0317 62.8657 89.874 62.3377 89.874C61.9491 89.874 61.6081 89.9583 61.3147 90.127C61.0214 90.2883 60.7941 90.5267 60.6327 90.842C60.4787 91.15 60.4017 91.524 60.4017 91.964V95H59.6207V89.225H60.3687V90.787L60.2477 90.512C60.4237 90.094 60.7061 89.7677 61.0947 89.533C61.4907 89.291 61.9564 89.17 62.4917 89.17C63.0564 89.17 63.5367 89.313 63.9327 89.599C64.3287 89.8777 64.5854 90.2993 64.7027 90.864L64.3947 90.743C64.5634 90.2737 64.8604 89.896 65.2857 89.61C65.7184 89.3167 66.2354 89.17 66.8367 89.17ZM74.9058 95V93.724L74.8728 93.515V91.381C74.8728 90.8897 74.7334 90.512 74.4548 90.248C74.1834 89.984 73.7764 89.852 73.2338 89.852C72.8598 89.852 72.5041 89.9143 72.1668 90.039C71.8294 90.1637 71.5434 90.3287 71.3088 90.534L70.9568 89.951C71.2501 89.7017 71.6021 89.511 72.0128 89.379C72.4234 89.2397 72.8561 89.17 73.3108 89.17C74.0588 89.17 74.6344 89.357 75.0378 89.731C75.4484 90.0977 75.6538 90.6587 75.6538 91.414V95H74.9058ZM72.9148 95.055C72.4821 95.055 72.1044 94.9853 71.7818 94.846C71.4664 94.6993 71.2244 94.5013 71.0558 94.252C70.8871 93.9953 70.8028 93.702 70.8028 93.372C70.8028 93.0713 70.8724 92.8 71.0118 92.558C71.1584 92.3087 71.3931 92.1107 71.7158 91.964C72.0458 91.81 72.4858 91.733 73.0358 91.733H75.0268V92.316H73.0578C72.5004 92.316 72.1118 92.415 71.8918 92.613C71.6791 92.811 71.5728 93.0567 71.5728 93.35C71.5728 93.68 71.7011 93.944 71.9578 94.142C72.2144 94.34 72.5738 94.439 73.0358 94.439C73.4758 94.439 73.8534 94.34 74.1688 94.142C74.4914 93.9367 74.7261 93.6433 74.8728 93.262L75.0488 93.801C74.9021 94.1823 74.6454 94.4867 74.2788 94.714C73.9194 94.9413 73.4648 95.055 72.9148 95.055ZM77.852 95.055C77.6907 95.055 77.5514 94.9963 77.434 94.879C77.324 94.7617 77.269 94.6187 77.269 94.45C77.269 94.274 77.324 94.131 77.434 94.021C77.5514 93.911 77.6907 93.856 77.852 93.856C78.0134 93.856 78.149 93.911 78.259 94.021C78.3764 94.131 78.435 94.274 78.435 94.45C78.435 94.6187 78.3764 94.7617 78.259 94.879C78.149 94.9963 78.0134 95.055 77.852 95.055ZM80.2051 97.134H79.4571C79.8971 96.3787 80.2161 95.5793 80.4141 94.736C80.6194 93.8853 80.7221 92.9687 80.7221 91.986C80.7221 91.0033 80.6194 90.0903 80.4141 89.247C80.2161 88.3963 79.8971 87.5933 79.4571 86.838H80.2051C80.6231 87.4907 80.9421 88.2607 81.1621 89.148C81.3821 90.028 81.4921 90.974 81.4921 91.986C81.4921 92.998 81.3821 93.944 81.1621 94.824C80.9421 95.6967 80.6231 96.4667 80.2051 97.134Z" fill="#2D52F1"/>
<rect x="9.5" y="1.5" width="64" height="64" rx="6.5" fill="white"/>
<rect x="9.5" y="1.5" width="64" height="64" rx="6.5" stroke="#2D52F1" stroke-width="3"/>
<rect width="2.40918" height="2.40918" transform="matrix(-1 0 0 1 23.6367 17.4092)" fill="#162877"/>
<rect width="2.40918" height="2.40918" transform="matrix(-1 0 0 1 26.0459 31.8643)" fill="#162877"/>
<rect width="2.40918" height="2.40918" transform="matrix(-1 0 0 1 30.8643 34.2734)" fill="#162877"/>
<rect width="2.40918" height="2.40918" transform="matrix(-1 0 0 1 30.8643 41.501)" fill="#162877"/>
<rect width="2.40918" height="2.40918" transform="matrix(-1 0 0 1 54.9561 34.2734)" fill="#162877"/>
<rect width="2.40918" height="2.40918" transform="matrix(-1 0 0 1 57.3652 34.2734)" fill="#162877"/>
<rect width="2.40918" height="2.40918" transform="matrix(-1 0 0 1 40.501 41.501)" fill="#162877"/>
<rect width="3.91492" height="2.40918" transform="matrix(-1 0 0 1 42.0068 39.0919)" fill="#162877"/>
<rect width="11.1425" height="2.40918" transform="matrix(-1 0 0 1 42.0068 36.6827)" fill="#162877"/>
<rect width="2.40918" height="2.40918" transform="matrix(-1 0 0 1 16.4092 29.4551)" fill="#162877"/>
<rect width="2.40918" height="14.4551" transform="matrix(-1 0 0 1 28.4551 24.6367)" fill="#162877"/>
<rect width="2.40918" height="4.81837" transform="matrix(-1 0 0 1 21.2275 19.8184)" fill="#162877"/>
<rect width="2.40918" height="4.81837" transform="matrix(-1 0 0 1 18.8184 24.6367)" fill="#162877"/>
<rect width="2.40918" height="2.40918" transform="matrix(-1 0 0 1 26.0459 15)" fill="#162877"/>
<rect width="2.40918" height="2.40918" transform="matrix(-1 0 0 1 28.4551 17.4092)" fill="#162877"/>
<rect width="2.40918" height="2.40918" transform="matrix(-1 0 0 1 42.9102 31.8643)" fill="#162877"/>
<rect width="4.81837" height="2.40918" transform="matrix(-1 0 0 1 35.6826 24.6367)" fill="#162877"/>
<rect width="2.40918" height="4.81837" transform="matrix(-1 0 0 1 30.8643 19.8184)" fill="#162877"/>
<rect x="59.7744" y="17.4092" width="2.40918" height="2.40918" fill="#162877"/>
<rect x="57.3652" y="31.8643" width="2.40918" height="2.40918" fill="#162877"/>
<rect x="52.5469" y="34.2734" width="2.40918" height="2.40918" fill="#162877"/>
<rect x="52.5469" y="41.501" width="2.40918" height="2.40918" fill="#162877"/>
<rect x="28.4551" y="34.2734" width="2.40918" height="2.40918" fill="#162877"/>
<rect x="26.0459" y="34.2734" width="2.40918" height="2.40918" fill="#162877"/>
<rect x="42.9102" y="41.501" width="2.40918" height="2.40918" fill="#162877"/>
<rect x="41.4043" y="39.0919" width="3.91492" height="2.40918" fill="#162877"/>
<rect x="41.4043" y="36.6827" width="11.1425" height="2.40918" fill="#162877"/>
<rect x="67.002" y="29.4551" width="2.40918" height="2.40918" fill="#162877"/>
<rect x="54.9561" y="24.6367" width="2.40918" height="14.4551" fill="#162877"/>
<rect x="62.1836" y="19.8184" width="2.40918" height="4.81837" fill="#162877"/>
<rect x="64.5928" y="24.6367" width="2.40918" height="4.81837" fill="#162877"/>
<rect x="57.3652" y="15" width="2.40918" height="2.40918" fill="#162877"/>
<rect x="54.9561" y="17.4092" width="2.40918" height="2.40918" fill="#162877"/>
<rect x="40.501" y="31.8643" width="2.40918" height="2.40918" fill="#162877"/>
<rect x="47.7285" y="24.6367" width="4.81837" height="2.40918" fill="#162877"/>
<rect x="52.5469" y="19.8184" width="2.40918" height="4.81837" fill="#162877"/>
<rect x="57.3652" y="17.4092" width="2.40918" height="2.40918" fill="#112FAD"/>
<rect x="59.7744" y="19.8184" width="2.40918" height="2.40918" fill="#112FAD"/>
<rect x="62.1836" y="24.6367" width="2.40918" height="2.40918" fill="#112FAD"/>
<rect x="64.5928" y="29.4551" width="2.40918" height="2.40918" fill="#112FAD"/>
<rect x="57.3652" y="29.4551" width="2.40918" height="2.40918" fill="#112FAD"/>
<rect x="50.1377" y="22.2275" width="2.40918" height="2.40918" fill="#112FAD"/>
<rect x="45.3193" y="22.2275" width="2.40918" height="2.40918" fill="#112FAD"/>
<rect x="42.9102" y="29.4551" width="2.40918" height="2.40918" fill="#112FAD"/>
<rect x="50.1377" y="43.9102" width="2.40918" height="2.40918" fill="#112FAD"/>
<rect x="35.6826" y="43.9102" width="2.40918" height="2.40918" fill="#112FAD"/>
<rect x="52.5469" y="36.6826" width="2.40918" height="4.81837" fill="#112FAD"/>
<rect x="28.4551" y="36.6826" width="2.40918" height="4.81837" fill="#112FAD"/>
<rect x="21.2275" y="22.2275" width="2.40918" height="9.63673" fill="#2446D9"/>
<rect x="23.6367" y="24.6367" width="2.40918" height="4.81837" fill="#2446D9"/>
<rect x="18.8184" y="27.0459" width="2.40918" height="4.81837" fill="#2446D9"/>
<rect x="26.0459" y="19.8184" width="2.40918" height="4.81837" fill="#2446D9"/>
<rect x="23.6367" y="19.8184" width="2.40918" height="2.40918" fill="#2446D9"/>
<rect x="54.9561" y="22.2275" width="2.40918" height="2.40918" fill="#2446D9"/>
<rect x="57.3652" y="24.6367" width="2.40918" height="4.81837" fill="#2446D9"/>
<rect x="45.3193" y="39.0918" width="2.40918" height="4.81837" fill="#2446D9"/>
<rect x="50.1377" y="34.2734" width="2.40918" height="2.40918" fill="#2446D9"/>
<rect x="40.501" y="34.2734" width="2.40918" height="2.40918" fill="#2446D9"/>
<rect x="30.8643" y="34.2734" width="2.40918" height="2.40918" fill="#2446D9"/>
<rect x="30.8643" y="39.0918" width="2.40918" height="4.81837" fill="#2446D9"/>
<rect x="50.1377" y="39.0918" width="2.40918" height="4.81837" fill="#2446D9"/>
<rect x="35.6826" y="39.0918" width="2.40918" height="4.81837" fill="#2446D9"/>
<rect x="62.1836" y="27.0459" width="2.40918" height="4.81837" fill="#2446D9"/>
<rect x="59.7744" y="22.2275" width="2.40918" height="9.63673" fill="#2446D9"/>
<rect x="54.9561" y="19.8184" width="4.81837" height="2.40918" fill="#2446D9"/>
<rect x="45.3193" y="43.9102" width="2.40918" height="2.40918" fill="#112FAD"/>
<rect x="30.8643" y="43.9102" width="2.40918" height="2.40918" fill="#112FAD"/>
<rect x="38.0918" y="29.4551" width="2.40918" height="7.22755" fill="#112FAD"/>
<rect x="33.2734" y="27.0459" width="4.81837" height="2.40918" fill="#112FAD"/>
<rect x="35.6826" y="22.2275" width="2.40918" height="2.40918" fill="#112FAD"/>
<rect x="30.8643" y="22.2275" width="2.40918" height="2.40918" fill="#112FAD"/>
<rect x="28.4551" y="24.6367" width="2.40918" height="9.63673" fill="#112FAD"/>
<rect x="23.6367" y="17.4092" width="2.40918" height="2.40918" fill="#112FAD"/>
<rect x="21.2275" y="19.8184" width="2.40918" height="2.40918" fill="#112FAD"/>
<rect x="18.8184" y="24.6367" width="2.40918" height="2.40918" fill="#112FAD"/>
<rect x="16.4092" y="29.4551" width="2.40918" height="2.40918" fill="#112FAD"/>
<rect x="23.6367" y="29.4551" width="2.40918" height="2.40918" fill="#112FAD"/>
<rect x="45.3193" y="27.0459" width="7.22755" height="2.40918" fill="#112FAD"/>
<rect x="52.5469" y="24.6367" width="2.40918" height="9.63673" fill="#112FAD"/>
<rect x="23.6367" y="22.2275" width="2.40918" height="2.40918" fill="#2D52F1"/>
<rect x="33.2734" y="22.2275" width="2.40918" height="2.40918" fill="#2D52F1"/>
<rect x="35.6826" y="24.6367" width="2.40918" height="2.40918" fill="#2D52F1"/>
<rect x="38.0918" y="27.0459" width="2.40918" height="2.40918" fill="#2D52F1"/>
<rect x="40.501" y="29.4551" width="2.40918" height="2.40918" fill="#2D52F1"/>
<rect x="42.9102" y="27.0459" width="2.40918" height="2.40918" fill="#2D52F1"/>
<rect x="45.3193" y="24.6367" width="2.40918" height="2.40918" fill="#2D52F1"/>
<rect x="47.7285" y="22.2275" width="2.40918" height="2.40918" fill="#2D52F1"/>
<rect x="57.3652" y="22.2275" width="2.40918" height="2.40918" fill="#2D52F1"/>
<rect x="30.8643" y="27.0459" width="2.40918" height="7.22755" fill="#2D52F1"/>
<rect x="33.2734" y="29.4551" width="2.40918" height="7.22755" fill="#2D52F1"/>
<rect x="33.2734" y="39.0918" width="2.40918" height="4.81837" fill="#2D52F1"/>
<rect x="47.7285" y="39.0918" width="2.40918" height="4.81837" fill="#2D52F1"/>
<rect x="42.9102" y="31.8643" width="2.40918" height="4.81837" fill="#2D52F1"/>
<rect x="45.3193" y="29.4551" width="2.40918" height="7.22755" fill="#2D52F1"/>
<rect x="47.7285" y="29.4551" width="2.40918" height="7.22755" fill="#2D52F1"/>
<rect x="50.1377" y="29.4551" width="2.40918" height="4.81837" fill="#2D52F1"/>
<rect x="35.6826" y="29.4551" width="2.40918" height="7.22755" fill="#2D52F1"/>
<rect x="30.8643" y="43.9102" width="2.40918" height="2.40918" fill="#A9A9AA"/>
<rect x="30.8643" y="46.3194" width="4.81837" height="2.40918" fill="#616161"/>
<rect x="35.6826" y="43.9102" width="2.40918" height="2.40918" fill="#A9A9AA"/>
<rect x="35.6826" y="46.3194" width="2.40918" height="2.40918" fill="#4F4F4F"/>
<rect x="38.0918" y="43.9102" width="2.40918" height="4.81837" fill="#373737"/>
<rect x="28.4551" y="43.9102" width="2.40918" height="4.81837" fill="#373737"/>
<rect x="30.8643" y="51.1378" width="2.40918" height="7.22755" transform="rotate(-90 30.8643 51.1378)" fill="#373737"/>
<rect x="33.2734" y="43.9102" width="2.40918" height="2.40918" fill="#CACACC"/>
<rect width="2.40918" height="2.40918" transform="matrix(-1 0 0 1 52.5469 43.9102)" fill="#A9A9AA"/>
<rect width="4.81837" height="2.40918" transform="matrix(-1 0 0 1 52.5469 46.3194)" fill="#616161"/>
<rect width="2.40918" height="2.40918" transform="matrix(-1 0 0 1 47.7285 43.9102)" fill="#A9A9AA"/>
<rect width="2.40918" height="2.40918" transform="matrix(-1 0 0 1 47.7285 46.3194)" fill="#4F4F4F"/>
<rect width="2.40918" height="4.81837" transform="matrix(-1 0 0 1 45.3193 43.9102)" fill="#373737"/>
<rect width="2.40918" height="4.81837" transform="matrix(-1 0 0 1 54.9561 43.9102)" fill="#373737"/>
<rect width="2.40918" height="7.22755" transform="matrix(4.37114e-08 -1 -1 -4.37114e-08 52.5469 51.1378)" fill="#373737"/>
<rect width="2.40918" height="2.40918" transform="matrix(-1 0 0 1 50.1377 43.9102)" fill="#CACACC"/>
<rect width="2.40918" height="4.81837" transform="matrix(-1 0 0 1 42.9102 24.6367)" fill="white"/>
<rect width="2.40918" height="2.40918" transform="matrix(-1 0 0 1 42.9102 22.2275)" fill="white"/>
<rect width="2.40918" height="2.40918" transform="matrix(-1 0 0 1 40.501 24.6367)" fill="white"/>
<rect width="2.40918" height="2.40918" transform="matrix(-1 0 0 1 45.3193 24.6367)" fill="white"/>
</svg>
