<svg width="71" height="85" viewBox="0 0 71 85" fill="none" xmlns="http://www.w3.org/2000/svg">
<rect x="3.5" y="1.5" width="64" height="64" rx="6.5" fill="white"/>
<rect x="3.5" y="1.5" width="64" height="64" rx="6.5" stroke="#F6AD20" stroke-width="3"/>
<rect width="2.40918" height="2.40918" transform="matrix(-1 0 0 1 17.6367 17.4092)" fill="#777779"/>
<rect width="2.40918" height="2.40918" transform="matrix(-1 0 0 1 20.0459 31.8643)" fill="#777779"/>
<rect width="2.40918" height="2.40918" transform="matrix(-1 0 0 1 24.8643 34.2734)" fill="#777779"/>
<rect width="2.40918" height="2.40918" transform="matrix(-1 0 0 1 24.8643 41.501)" fill="#777779"/>
<rect width="2.40918" height="2.40918" transform="matrix(-1 0 0 1 48.9561 34.2734)" fill="#777779"/>
<rect width="2.40918" height="2.40918" transform="matrix(-1 0 0 1 51.3652 34.2734)" fill="#777779"/>
<rect width="2.40918" height="2.40918" transform="matrix(-1 0 0 1 34.501 41.501)" fill="#777779"/>
<rect width="3.91492" height="2.40918" transform="matrix(-1 0 0 1 36.0068 39.0919)" fill="#777779"/>
<rect width="11.1425" height="2.40918" transform="matrix(-1 0 0 1 36.0068 36.6827)" fill="#777779"/>
<rect width="2.40918" height="2.40918" transform="matrix(-1 0 0 1 10.4092 29.4551)" fill="#777779"/>
<rect width="2.40918" height="14.4551" transform="matrix(-1 0 0 1 22.4551 24.6367)" fill="#777779"/>
<rect width="2.40918" height="4.81837" transform="matrix(-1 0 0 1 15.2275 19.8184)" fill="#777779"/>
<rect width="2.40918" height="4.81837" transform="matrix(-1 0 0 1 12.8184 24.6367)" fill="#777779"/>
<rect width="2.40918" height="2.40918" transform="matrix(-1 0 0 1 20.0459 15)" fill="#777779"/>
<rect width="2.40918" height="2.40918" transform="matrix(-1 0 0 1 22.4551 17.4092)" fill="#777779"/>
<rect width="2.40918" height="2.40918" transform="matrix(-1 0 0 1 36.9102 31.8643)" fill="#777779"/>
<rect width="4.81837" height="2.40918" transform="matrix(-1 0 0 1 29.6826 24.6367)" fill="#777779"/>
<rect width="2.40918" height="4.81837" transform="matrix(-1 0 0 1 24.8643 19.8184)" fill="#777779"/>
<rect x="53.7744" y="17.4092" width="2.40918" height="2.40918" fill="#777779"/>
<rect x="51.3652" y="31.8643" width="2.40918" height="2.40918" fill="#777779"/>
<rect x="46.5469" y="34.2734" width="2.40918" height="2.40918" fill="#777779"/>
<rect x="46.5469" y="41.501" width="2.40918" height="2.40918" fill="#777779"/>
<rect x="22.4551" y="34.2734" width="2.40918" height="2.40918" fill="#777779"/>
<rect x="20.0459" y="34.2734" width="2.40918" height="2.40918" fill="#777779"/>
<rect x="36.9102" y="41.501" width="2.40918" height="2.40918" fill="#777779"/>
<rect x="35.4043" y="39.0919" width="3.91492" height="2.40918" fill="#777779"/>
<rect x="35.4043" y="36.6827" width="11.1425" height="2.40918" fill="#777779"/>
<rect x="61.002" y="29.4551" width="2.40918" height="2.40918" fill="#777779"/>
<rect x="48.9561" y="24.6367" width="2.40918" height="14.4551" fill="#777779"/>
<rect x="56.1836" y="19.8184" width="2.40918" height="4.81837" fill="#777779"/>
<rect x="58.5928" y="24.6367" width="2.40918" height="4.81837" fill="#777779"/>
<rect x="51.3652" y="15" width="2.40918" height="2.40918" fill="#777779"/>
<rect x="48.9561" y="17.4092" width="2.40918" height="2.40918" fill="#777779"/>
<rect x="34.501" y="31.8643" width="2.40918" height="2.40918" fill="#777779"/>
<rect x="41.7285" y="24.6367" width="4.81837" height="2.40918" fill="#777779"/>
<rect x="46.5469" y="19.8184" width="2.40918" height="4.81837" fill="#777779"/>
<rect x="51.3652" y="17.4092" width="2.40918" height="2.40918" fill="#A9A9AA"/>
<rect x="53.7744" y="19.8184" width="2.40918" height="2.40918" fill="#A9A9AA"/>
<rect x="56.1836" y="24.6367" width="2.40918" height="2.40918" fill="#A9A9AA"/>
<rect x="58.5928" y="29.4551" width="2.40918" height="2.40918" fill="#A9A9AA"/>
<rect x="51.3652" y="29.4551" width="2.40918" height="2.40918" fill="#A9A9AA"/>
<rect x="44.1377" y="22.2275" width="2.40918" height="2.40918" fill="#A9A9AA"/>
<rect x="39.3193" y="22.2275" width="2.40918" height="2.40918" fill="#A9A9AA"/>
<rect x="36.9102" y="29.4551" width="2.40918" height="2.40918" fill="#A9A9AA"/>
<rect x="44.1377" y="43.9102" width="2.40918" height="2.40918" fill="#A9A9AA"/>
<rect x="29.6826" y="43.9102" width="2.40918" height="2.40918" fill="#A9A9AA"/>
<rect x="46.5469" y="36.6826" width="2.40918" height="4.81837" fill="#A9A9AA"/>
<rect x="22.4551" y="36.6826" width="2.40918" height="4.81837" fill="#A9A9AA"/>
<rect x="15.2275" y="22.2275" width="2.40918" height="9.63673" fill="#CACACC"/>
<rect x="17.6367" y="24.6367" width="2.40918" height="4.81837" fill="#CACACC"/>
<rect x="12.8184" y="27.0459" width="2.40918" height="4.81837" fill="#CACACC"/>
<rect x="20.0459" y="19.8184" width="2.40918" height="4.81837" fill="#CACACC"/>
<rect x="17.6367" y="19.8184" width="2.40918" height="2.40918" fill="#CACACC"/>
<rect x="48.9561" y="22.2275" width="2.40918" height="2.40918" fill="#CACACC"/>
<rect x="51.3652" y="24.6367" width="2.40918" height="4.81837" fill="#CACACC"/>
<rect x="39.3193" y="39.0918" width="2.40918" height="4.81837" fill="#CACACC"/>
<rect x="44.1377" y="34.2734" width="2.40918" height="2.40918" fill="#CACACC"/>
<rect x="34.501" y="34.2734" width="2.40918" height="2.40918" fill="#CACACC"/>
<rect x="24.8643" y="34.2734" width="2.40918" height="2.40918" fill="#CACACC"/>
<rect x="24.8643" y="39.0918" width="2.40918" height="4.81837" fill="#CACACC"/>
<rect x="44.1377" y="39.0918" width="2.40918" height="4.81837" fill="#CACACC"/>
<rect x="29.6826" y="39.0918" width="2.40918" height="4.81837" fill="#CACACC"/>
<rect x="56.1836" y="27.0459" width="2.40918" height="4.81837" fill="#CACACC"/>
<rect x="53.7744" y="22.2275" width="2.40918" height="9.63673" fill="#CACACC"/>
<rect x="48.9561" y="19.8184" width="4.81837" height="2.40918" fill="#CACACC"/>
<rect x="39.3193" y="43.9102" width="2.40918" height="2.40918" fill="#A9A9AA"/>
<rect x="24.8643" y="43.9102" width="2.40918" height="2.40918" fill="#A9A9AA"/>
<rect x="32.0918" y="29.4551" width="2.40918" height="7.22755" fill="#A9A9AA"/>
<rect x="27.2734" y="27.0459" width="4.81837" height="2.40918" fill="#A9A9AA"/>
<rect x="29.6826" y="22.2275" width="2.40918" height="2.40918" fill="#A9A9AA"/>
<rect x="24.8643" y="22.2275" width="2.40918" height="2.40918" fill="#A9A9AA"/>
<rect x="22.4551" y="24.6367" width="2.40918" height="9.63673" fill="#A9A9AA"/>
<rect x="17.6367" y="17.4092" width="2.40918" height="2.40918" fill="#A9A9AA"/>
<rect x="15.2275" y="19.8184" width="2.40918" height="2.40918" fill="#A9A9AA"/>
<rect x="12.8184" y="24.6367" width="2.40918" height="2.40918" fill="#A9A9AA"/>
<rect x="10.4092" y="29.4551" width="2.40918" height="2.40918" fill="#A9A9AA"/>
<rect x="17.6367" y="29.4551" width="2.40918" height="2.40918" fill="#A9A9AA"/>
<rect x="39.3193" y="27.0459" width="7.22755" height="2.40918" fill="#A9A9AA"/>
<rect x="46.5469" y="24.6367" width="2.40918" height="9.63673" fill="#A9A9AA"/>
<rect x="17.6367" y="22.2275" width="2.40918" height="2.40918" fill="white"/>
<rect x="27.2734" y="22.2275" width="2.40918" height="2.40918" fill="white"/>
<rect x="29.6826" y="24.6367" width="2.40918" height="2.40918" fill="white"/>
<rect x="32.0918" y="27.0459" width="2.40918" height="2.40918" fill="white"/>
<rect x="34.501" y="29.4551" width="2.40918" height="2.40918" fill="white"/>
<rect x="36.9102" y="27.0459" width="2.40918" height="2.40918" fill="white"/>
<rect x="39.3193" y="24.6367" width="2.40918" height="2.40918" fill="white"/>
<rect x="41.7285" y="22.2275" width="2.40918" height="2.40918" fill="white"/>
<rect x="51.3652" y="22.2275" width="2.40918" height="2.40918" fill="white"/>
<rect x="24.8643" y="27.0459" width="2.40918" height="7.22755" fill="white"/>
<rect x="27.2734" y="29.4551" width="2.40918" height="7.22755" fill="white"/>
<rect x="27.2734" y="39.0918" width="2.40918" height="4.81837" fill="white"/>
<rect x="41.7285" y="39.0918" width="2.40918" height="4.81837" fill="white"/>
<rect x="36.9102" y="31.8643" width="2.40918" height="4.81837" fill="white"/>
<rect x="39.3193" y="29.4551" width="2.40918" height="7.22755" fill="white"/>
<rect x="41.7285" y="29.4551" width="2.40918" height="7.22755" fill="white"/>
<rect x="44.1377" y="29.4551" width="2.40918" height="4.81837" fill="white"/>
<rect x="29.6826" y="29.4551" width="2.40918" height="7.22755" fill="white"/>
<rect x="24.8643" y="43.9102" width="2.40918" height="2.40918" fill="#A9A9AA"/>
<rect x="24.8643" y="46.3194" width="4.81837" height="2.40918" fill="#616161"/>
<rect x="29.6826" y="43.9102" width="2.40918" height="2.40918" fill="#A9A9AA"/>
<rect x="29.6826" y="46.3194" width="2.40918" height="2.40918" fill="#4F4F4F"/>
<rect x="32.0918" y="43.9102" width="2.40918" height="4.81837" fill="#373737"/>
<rect x="22.4551" y="43.9102" width="2.40918" height="4.81837" fill="#373737"/>
<rect x="24.8643" y="51.1378" width="2.40918" height="7.22755" transform="rotate(-90 24.8643 51.1378)" fill="#373737"/>
<rect x="27.2734" y="43.9102" width="2.40918" height="2.40918" fill="#CACACC"/>
<rect width="2.40918" height="2.40918" transform="matrix(-1 0 0 1 46.5469 43.9102)" fill="#A9A9AA"/>
<rect width="4.81837" height="2.40918" transform="matrix(-1 0 0 1 46.5469 46.3194)" fill="#616161"/>
<rect width="2.40918" height="2.40918" transform="matrix(-1 0 0 1 41.7285 43.9102)" fill="#A9A9AA"/>
<rect width="2.40918" height="2.40918" transform="matrix(-1 0 0 1 41.7285 46.3194)" fill="#4F4F4F"/>
<rect width="2.40918" height="4.81837" transform="matrix(-1 0 0 1 39.3193 43.9102)" fill="#373737"/>
<rect width="2.40918" height="4.81837" transform="matrix(-1 0 0 1 48.9561 43.9102)" fill="#373737"/>
<rect width="2.40918" height="7.22755" transform="matrix(4.37114e-08 -1 -1 -4.37114e-08 46.5469 51.1378)" fill="#373737"/>
<rect width="2.40918" height="2.40918" transform="matrix(-1 0 0 1 44.1377 43.9102)" fill="#CACACC"/>
<rect width="2.40918" height="4.81837" transform="matrix(-1 0 0 1 36.9102 24.6367)" fill="#F7AE20"/>
<rect width="2.40918" height="2.40918" transform="matrix(-1 0 0 1 36.9102 22.2275)" fill="#DC9100"/>
<rect width="2.40918" height="2.40918" transform="matrix(-1 0 0 1 34.501 24.6367)" fill="#DC9100"/>
<rect width="2.40918" height="2.40918" transform="matrix(-1 0 0 1 39.3193 24.6367)" fill="#DC9100"/>
<path d="M4.69841 82.154C4.08241 82.154 3.51408 82.055 2.99341 81.857C2.47274 81.659 2.01808 81.3803 1.62941 81.021C1.24808 80.6543 0.951077 80.229 0.73841 79.745C0.525744 79.261 0.41941 78.7293 0.41941 78.15C0.41941 77.5707 0.525744 77.039 0.73841 76.555C0.951077 76.071 1.24808 75.6493 1.62941 75.29C2.01808 74.9233 2.47274 74.641 2.99341 74.443C3.51408 74.245 4.08241 74.146 4.69841 74.146C5.32174 74.146 5.89008 74.245 6.40341 74.443C6.92408 74.641 7.37508 74.9233 7.75641 75.29C8.13774 75.6493 8.43474 76.071 8.64741 76.555C8.86741 77.039 8.97741 77.5707 8.97741 78.15C8.97741 78.7293 8.86741 79.2647 8.64741 79.756C8.43474 80.24 8.13774 80.6617 7.75641 81.021C7.37508 81.3803 6.92408 81.659 6.40341 81.857C5.89008 82.055 5.32174 82.154 4.69841 82.154ZM4.69841 80.35C4.99174 80.35 5.26308 80.2987 5.51241 80.196C5.76908 80.0933 5.98908 79.9467 6.17241 79.756C6.36308 79.558 6.50974 79.3233 6.61241 79.052C6.72241 78.7807 6.77741 78.48 6.77741 78.15C6.77741 77.8127 6.72241 77.512 6.61241 77.248C6.50974 76.9767 6.36308 76.7457 6.17241 76.555C5.98908 76.357 5.76908 76.2067 5.51241 76.104C5.26308 76.0013 4.99174 75.95 4.69841 75.95C4.40508 75.95 4.13008 76.0013 3.87341 76.104C3.62408 76.2067 3.40408 76.357 3.21341 76.555C3.03008 76.7457 2.88341 76.9767 2.77341 77.248C2.67074 77.512 2.61941 77.8127 2.61941 78.15C2.61941 78.48 2.67074 78.7807 2.77341 79.052C2.88341 79.3233 3.03008 79.558 3.21341 79.756C3.40408 79.9467 3.62408 80.0933 3.87341 80.196C4.13008 80.2987 4.40508 80.35 4.69841 80.35ZM10.1181 82V74.3H11.9111L16.1571 79.426H15.3101V74.3H17.4441V82H15.6511L11.4051 76.874H12.2521V82H10.1181ZM22.8194 82.154C22.2108 82.154 21.6461 82.0587 21.1254 81.868C20.6121 81.67 20.1648 81.3913 19.7834 81.032C19.4094 80.6727 19.1161 80.251 18.9034 79.767C18.6908 79.2757 18.5844 78.7367 18.5844 78.15C18.5844 77.5633 18.6908 77.028 18.9034 76.544C19.1161 76.0527 19.4094 75.6273 19.7834 75.268C20.1648 74.9087 20.6121 74.6337 21.1254 74.443C21.6461 74.245 22.2108 74.146 22.8194 74.146C23.5308 74.146 24.1651 74.2707 24.7224 74.52C25.2871 74.7693 25.7564 75.1287 26.1304 75.598L24.7444 76.852C24.4951 76.5587 24.2201 76.335 23.9194 76.181C23.6261 76.027 23.2961 75.95 22.9294 75.95C22.6141 75.95 22.3244 76.0013 22.0604 76.104C21.7964 76.2067 21.5691 76.357 21.3784 76.555C21.1951 76.7457 21.0484 76.9767 20.9384 77.248C20.8358 77.5193 20.7844 77.82 20.7844 78.15C20.7844 78.48 20.8358 78.7807 20.9384 79.052C21.0484 79.3233 21.1951 79.558 21.3784 79.756C21.5691 79.9467 21.7964 80.0933 22.0604 80.196C22.3244 80.2987 22.6141 80.35 22.9294 80.35C23.2961 80.35 23.6261 80.273 23.9194 80.119C24.2201 79.965 24.4951 79.7413 24.7444 79.448L26.1304 80.702C25.7564 81.164 25.2871 81.5233 24.7224 81.78C24.1651 82.0293 23.5308 82.154 22.8194 82.154ZM30.8234 82.154C30.2074 82.154 29.6391 82.055 29.1184 81.857C28.5977 81.659 28.1431 81.3803 27.7544 81.021C27.3731 80.6543 27.0761 80.229 26.8634 79.745C26.6507 79.261 26.5444 78.7293 26.5444 78.15C26.5444 77.5707 26.6507 77.039 26.8634 76.555C27.0761 76.071 27.3731 75.6493 27.7544 75.29C28.1431 74.9233 28.5977 74.641 29.1184 74.443C29.6391 74.245 30.2074 74.146 30.8234 74.146C31.4467 74.146 32.0151 74.245 32.5284 74.443C33.0491 74.641 33.5001 74.9233 33.8814 75.29C34.2627 75.6493 34.5597 76.071 34.7724 76.555C34.9924 77.039 35.1024 77.5707 35.1024 78.15C35.1024 78.7293 34.9924 79.2647 34.7724 79.756C34.5597 80.24 34.2627 80.6617 33.8814 81.021C33.5001 81.3803 33.0491 81.659 32.5284 81.857C32.0151 82.055 31.4467 82.154 30.8234 82.154ZM30.8234 80.35C31.1167 80.35 31.3881 80.2987 31.6374 80.196C31.8941 80.0933 32.1141 79.9467 32.2974 79.756C32.4881 79.558 32.6347 79.3233 32.7374 79.052C32.8474 78.7807 32.9024 78.48 32.9024 78.15C32.9024 77.8127 32.8474 77.512 32.7374 77.248C32.6347 76.9767 32.4881 76.7457 32.2974 76.555C32.1141 76.357 31.8941 76.2067 31.6374 76.104C31.3881 76.0013 31.1167 75.95 30.8234 75.95C30.5301 75.95 30.2551 76.0013 29.9984 76.104C29.7491 76.2067 29.5291 76.357 29.3384 76.555C29.1551 76.7457 29.0084 76.9767 28.8984 77.248C28.7957 77.512 28.7444 77.8127 28.7444 78.15C28.7444 78.48 28.7957 78.7807 28.8984 79.052C29.0084 79.3233 29.1551 79.558 29.3384 79.756C29.5291 79.9467 29.7491 80.0933 29.9984 80.196C30.2551 80.2987 30.5301 80.35 30.8234 80.35ZM36.2431 82V74.3H38.4211V80.273H42.0951V82H36.2431ZM46.7218 82.154C46.1058 82.154 45.5375 82.055 45.0168 81.857C44.4962 81.659 44.0415 81.3803 43.6528 81.021C43.2715 80.6543 42.9745 80.229 42.7618 79.745C42.5492 79.261 42.4428 78.7293 42.4428 78.15C42.4428 77.5707 42.5492 77.039 42.7618 76.555C42.9745 76.071 43.2715 75.6493 43.6528 75.29C44.0415 74.9233 44.4962 74.641 45.0168 74.443C45.5375 74.245 46.1058 74.146 46.7218 74.146C47.3452 74.146 47.9135 74.245 48.4268 74.443C48.9475 74.641 49.3985 74.9233 49.7798 75.29C50.1612 75.6493 50.4582 76.071 50.6708 76.555C50.8908 77.039 51.0008 77.5707 51.0008 78.15C51.0008 78.7293 50.8908 79.2647 50.6708 79.756C50.4582 80.24 50.1612 80.6617 49.7798 81.021C49.3985 81.3803 48.9475 81.659 48.4268 81.857C47.9135 82.055 47.3452 82.154 46.7218 82.154ZM46.7218 80.35C47.0152 80.35 47.2865 80.2987 47.5358 80.196C47.7925 80.0933 48.0125 79.9467 48.1958 79.756C48.3865 79.558 48.5332 79.3233 48.6358 79.052C48.7458 78.7807 48.8008 78.48 48.8008 78.15C48.8008 77.8127 48.7458 77.512 48.6358 77.248C48.5332 76.9767 48.3865 76.7457 48.1958 76.555C48.0125 76.357 47.7925 76.2067 47.5358 76.104C47.2865 76.0013 47.0152 75.95 46.7218 75.95C46.4285 75.95 46.1535 76.0013 45.8968 76.104C45.6475 76.2067 45.4275 76.357 45.2368 76.555C45.0535 76.7457 44.9068 76.9767 44.7968 77.248C44.6942 77.512 44.6428 77.8127 44.6428 78.15C44.6428 78.48 44.6942 78.7807 44.7968 79.052C44.9068 79.3233 45.0535 79.558 45.2368 79.756C45.4275 79.9467 45.6475 80.0933 45.8968 80.196C46.1535 80.2987 46.4285 80.35 46.7218 80.35ZM55.9916 82.154C55.3829 82.154 54.8182 82.0587 54.2976 81.868C53.7769 81.67 53.3259 81.3913 52.9446 81.032C52.5706 80.6727 52.2772 80.251 52.0646 79.767C51.8519 79.2757 51.7456 78.7367 51.7456 78.15C51.7456 77.5633 51.8519 77.028 52.0646 76.544C52.2772 76.0527 52.5742 75.6273 52.9556 75.268C53.3369 74.9087 53.7879 74.6337 54.3086 74.443C54.8366 74.245 55.4122 74.146 56.0356 74.146C56.7616 74.146 57.4106 74.267 57.9826 74.509C58.5546 74.751 59.0276 75.0993 59.4016 75.554L58.0156 76.808C57.7516 76.522 57.4656 76.3093 57.1576 76.17C56.8569 76.0233 56.5196 75.95 56.1456 75.95C55.8156 75.95 55.5149 76.0013 55.2436 76.104C54.9722 76.2067 54.7412 76.357 54.5506 76.555C54.3599 76.7457 54.2096 76.9767 54.0996 77.248C53.9969 77.512 53.9456 77.8127 53.9456 78.15C53.9456 78.4727 53.9969 78.7697 54.0996 79.041C54.2096 79.3123 54.3599 79.547 54.5506 79.745C54.7412 79.9357 54.9686 80.086 55.2326 80.196C55.5039 80.2987 55.8009 80.35 56.1236 80.35C56.4462 80.35 56.7616 80.2987 57.0696 80.196C57.3776 80.086 57.6892 79.9027 58.0046 79.646L59.2256 81.175C58.7856 81.4903 58.2759 81.7323 57.6966 81.901C57.1172 82.0697 56.5489 82.154 55.9916 82.154ZM57.3006 80.889V77.985H59.2256V81.175L57.3006 80.889ZM60.6064 82V74.3H62.7844V82H60.6064ZM66.336 77.281H69.911V78.909H66.336V77.281ZM66.49 80.317H70.516V82H64.334V74.3H70.373V75.983H66.49V80.317Z" fill="#F6AD20"/>
</svg>
